<?xml version="1.0" standalone="no"?>
<!DOCTYPE svg PUBLIC "-//W3C//DTD SVG 1.1//EN" "http://www.w3.org/Graphics/SVG/1.1/DTD/svg11.dtd" >
<svg xmlns="http://www.w3.org/2000/svg">
<metadata>Generated by IcoMoon</metadata>
<defs>
<font id="partners" horiz-adv-x="1024">
<font-face units-per-em="1024" ascent="960" descent="-64" />
<missing-glyph horiz-adv-x="1024" />
<glyph unicode="&#x20;" horiz-adv-x="512" d="" />
<glyph unicode="&#xe900;" glyph-name="circle" d="M0 448c0 282.77 229.23 512 512 512s512-229.23 512-512c0-282.77-229.23-512-512-512s-512 229.23-512 512z" />
<glyph unicode="&#xe901;" glyph-name="circle-empty" d="M512 857.6c226.216 0 409.6-183.384 409.6-409.6s-183.384-409.6-409.6-409.6c-226.216 0-409.6 183.384-409.6 409.6s183.384 409.6 409.6 409.6zM512 960c-282.769 0-512-229.231-512-512s229.231-512 512-512c282.769 0 512 229.231 512 512s-229.231 512-512 512z" />
<glyph unicode="&#xe902;" glyph-name="arrow-simple" horiz-adv-x="614" d="M71.82 6.481c-27.493 25.708-27.493 67.387 0 93.096l372.62 348.423-372.62 348.423c-27.493 25.709-27.493 67.389 0 93.096s72.068 25.708 99.561 0l422.4-394.971c27.492-25.708 27.492-67.388 0-93.096l-422.4-394.971c-27.493-25.708-72.068-25.708-99.561 0z" />
<glyph unicode="&#xe903;" glyph-name="trash" horiz-adv-x="862" d="M177.083 823.986c72.464 7.317 144.941 10.977 217.426 10.977 121.374 0 243.071-6.177 364.006-18.162 22.21-2.201 38.438-21.995 36.233-44.21-2.199-22.215-21.994-38.439-44.21-36.238-118.358 11.729-237.391 17.767-356.029 17.767-69.778 0-139.563-3.524-209.361-10.574l-0.119-0.012-73.297-7.186c-22.218-2.178-41.994 14.067-44.172 36.284s14.067 41.994 36.284 44.172l73.238 7.18zM353.167 853.222l-7.902-47.049c-3.697-22.016-24.542-36.866-46.557-33.168s-36.866 24.542-33.168 46.558l7.905 47.068c0.151 0.901 0.312 1.881 0.477 2.896 2.374 14.552 6.55 40.154 23.845 59.766 20.856 23.65 51.709 30.708 86.322 30.708h94.136c35.219 0 65.988-7.702 86.667-31.535 17.262-19.888 21.321-45.477 23.601-59.819 0.135-0.858 0.264-1.676 0.388-2.45l7.885-46.586c3.724-22.011-11.097-42.874-33.108-46.599s-42.876 11.099-46.601 33.11l-7.945 46.949c-1.429 8.764-2.36 14.010-3.627 18.249-0.746 2.494-1.338 3.64-1.581 4.044-1.588 0.991-7.912 3.793-25.679 3.793h-94.136c-17.432 0-23.966-2.54-25.764-3.525-0.262-0.501-0.752-1.588-1.361-3.612-1.293-4.305-2.26-9.678-3.797-18.798zM357.761 875.249c-0.012 0.008 0.084 0.097 0.322 0.244-0.191-0.179-0.31-0.252-0.322-0.244zM504.34 875.024c-0.014-0.010-0.143 0.075-0.344 0.282 0.258-0.169 0.358-0.273 0.344-0.282zM679.882 703.377c22.275-1.438 39.171-20.663 37.732-42.941l-23.369-362.037-0.070-1.019c-0.932-13.28-2.026-28.898-4.985-43.595-3.121-15.495-8.801-32.811-20.82-48.457-25.481-33.178-67.686-44.765-121.878-44.765h-230.671c-54.194 0-96.397 11.587-121.881 44.765-12.015 15.646-17.698 32.962-20.818 48.457-2.959 14.697-4.052 30.31-4.981 43.595l-0.087 1.24-23.354 361.816c-1.438 22.278 15.456 41.503 37.733 42.941s41.503-15.456 42.941-37.734l23.347-361.704c1.027-14.649 1.842-25.207 3.652-34.196 1.731-8.591 3.862-12.805 5.68-15.171 2.183-2.84 11.719-13.166 57.768-13.166h230.671c46.048 0 55.587 10.326 57.764 13.166 1.822 2.366 3.95 6.581 5.681 15.171 1.811 8.99 2.63 19.548 3.654 34.196 0.005 0.038 0.005 0.075 0.005 0.113l23.342 361.591c1.439 22.278 20.663 39.172 42.943 37.734zM330.734 398.595c0 22.329 18.097 40.423 40.421 40.423h119.646c22.324 0 40.421-18.095 40.421-40.423 0-22.323-18.097-40.421-40.421-40.421h-119.646c-22.324 0-40.421 18.098-40.421 40.421zM300.911 542.316c0 22.324 18.097 40.421 40.421 40.421h179.649c22.326 0 40.418-18.097 40.418-40.421s-18.092-40.421-40.418-40.421h-179.649c-22.324 0-40.421 18.097-40.421 40.421z" />
<glyph unicode="&#xe904;" horiz-adv-x="1479" d="M446.222 732.444h540.444v-568.889h-540.444v568.889z" />
<glyph unicode="&#xe905;" horiz-adv-x="1479" d="M1426.665 797.333c-15.997 64-66.665 114.667-128 130.667-114.665 32-567.999 32-567.999 32s-456 0-570.667-32c-61.333-16-112-66.667-128-130.667-32-112-32-352.001-32-352.001s0-237.332 32-352c16-64 66.667-111.997 128-128 114.667-29.332 570.667-29.332 570.667-29.332s453.333 0 567.999 29.332c61.335 16.003 112.003 64 128 128 32 114.668 32 352 32 352s0 240.001-32 352.001zM581.333 229.333v432l378.667-216.001-378.667-215.999z" />
<glyph unicode="&#xe906;" glyph-name="youtube" horiz-adv-x="993" d="M434.645 348.895l161.5 93.013-161.5 93.016v-186.030zM496.485 938.394c-274.159 0-496.485-222.326-496.485-496.485s222.326-496.485 496.485-496.485c274.159 0 496.485 222.326 496.485 496.485s-222.326 496.485-496.485 496.485zM806.713 441.403c0 0 0-100.69-12.775-149.243-7.159-26.577-28.113-47.532-54.688-54.682-48.553-12.781-242.766-12.781-242.766-12.781s-193.704 0-242.765 13.287c-26.576 7.152-47.53 28.113-54.689 54.691-12.78 48.038-12.78 149.234-12.78 149.234s0 100.681 12.78 149.234c7.152 26.577 28.621 48.047 54.689 55.197 48.553 12.782 242.765 12.782 242.765 12.782s194.212 0 242.766-13.287c26.574-7.152 47.529-28.113 54.688-54.691 13.29-48.553 12.775-149.74 12.775-149.74z" />
<glyph unicode="&#xe907;" glyph-name="whatsapp" d="M870.618 811.188c-95.799 95.913-223.205 148.756-358.936 148.812-279.689 0-507.314-227.619-507.426-507.382-0.038-89.429 23.325-176.732 67.731-253.679l-71.988-262.939 268.994 70.564c74.118-40.431 157.564-61.74 242.48-61.764h0.212c279.658 0 507.307 227.639 507.412 507.412 0.058 135.588-52.675 263.069-148.48 358.975zM511.683 30.495h-0.177c-75.674 0.031-149.893 20.367-214.655 58.788l-15.394 9.141-159.625-41.875 42.606 155.634-10.031 15.954c-42.219 67.151-64.512 144.763-64.475 224.451 0.088 232.531 189.288 421.713 421.919 421.713 112.65-0.038 218.545-43.963 298.168-123.681 79.626-79.719 123.45-185.681 123.412-298.376-0.099-232.55-189.286-421.748-421.748-421.748zM743.018 346.361c-12.674 6.352-75.011 37.014-86.637 41.25-11.612 4.233-20.074 6.339-28.518-6.349-8.455-12.687-32.751-41.25-40.151-49.705-7.4-8.465-14.787-9.527-27.467-3.178-12.681 6.345-53.531 19.739-101.963 62.932-37.687 33.621-63.13 75.138-70.53 87.825-7.39 12.701-0.065 18.9 5.56 25.876 13.725 17.043 27.471 34.912 31.696 43.37 4.229 8.462 2.109 15.869-1.065 22.211-3.161 6.345-28.518 68.751-39.079 94.144-10.301 24.713-20.746 21.375-28.532 21.763-7.386 0.369-15.844 0.444-24.3 0.444-8.45 0-22.188-3.169-33.812-15.869-11.619-12.694-44.369-43.362-44.369-105.769s45.431-122.692 51.769-131.157c6.338-8.462 89.406-136.523 216.587-191.437 30.249-13.073 53.862-20.869 72.281-26.713 30.375-9.649 58.006-8.288 79.858-5.024 24.361 3.645 75.005 30.676 85.579 60.286 10.564 29.621 10.564 55.002 7.39 60.297-3.164 5.287-11.619 8.455-24.296 14.804z" />
<glyph unicode="&#xe908;" glyph-name="update" d="M512.114 739.638c-147.6 0.441-272.54-108.86-291.723-255.209-3.445-26.285-27.546-44.799-53.831-41.354s-44.8 27.546-41.354 53.831c25.461 194.245 191.29 339.317 387.195 338.732 195.907-0.586 360.867-146.647 385.161-341.041 24.301-194.392-99.629-376.568-289.361-425.356-144.475-37.152-292.837 11.846-387.402 117.69v-80.262c0-26.509-21.49-48-48-48s-48 21.491-48 48v213.334c0 26.509 21.491 48 48 48h20.248c0.716 0.016 1.43 0.016 2.142 0h190.943c26.509 0 48-21.491 48-48 0-26.511-21.491-48.003-48-48.003h-110.881c69.504-94.157 190.995-140.141 309.041-109.786 142.947 36.762 236.323 174.015 218.012 320.476-18.304 146.461-142.592 256.507-290.19 256.948z" />
<glyph unicode="&#xe909;" glyph-name="twitter" d="M496.969 947.818c-274.158 0-496.484-222.326-496.484-496.486s222.326-496.485 496.484-496.485c274.159 0 496.485 222.326 496.485 496.485s-222.326 496.486-496.485 496.486zM723.658 560.711c0.22-4.884 0.326-9.793 0.326-14.727 0-150.584-114.62-324.226-324.233-324.236v0c-64.357 0-124.243 18.866-174.675 51.191 8.917-1.052 17.992-1.576 27.182-1.576 53.394 0 102.531 18.212 141.539 48.78-49.887 0.925-91.948 33.873-106.463 79.152 6.947-1.331 14.091-2.060 21.416-2.060 10.403 0 20.478 1.403 30.054 4.015-52.145 10.439-91.426 56.522-91.426 111.706 0 0.515 0 0.977 0.015 1.452 15.356-8.536 32.917-13.672 51.614-14.249-30.599 20.418-50.712 55.318-50.712 94.857 0 20.877 5.644 40.439 15.432 57.28 56.198-68.954 140.182-114.304 234.893-119.068-1.952 8.347-2.96 17.045-2.96 25.985 0 62.908 51.039 113.946 113.968 113.946 32.78 0 62.386-13.856 83.183-36.008 25.963 5.12 50.34 14.606 72.363 27.659-8.521-26.598-26.584-48.918-50.114-63.031 23.056 2.759 45.025 8.872 65.44 17.948-15.248-22.857-34.589-42.934-56.841-59.017z" />
<glyph unicode="&#xe90a;" glyph-name="star" d="M511.7 921.99c18.046 0 34.526-10.245 42.512-26.426l120.632-244.434 269.727-39.091c17.863-2.59 32.711-15.103 38.286-32.275s0.916-36.020-12.021-48.613l-195.459-190.26 46.086-268.658c3.055-17.795-4.267-35.777-18.876-46.382-14.609-10.61-33.98-11.992-49.948-3.578l-240.666 126.822-241.252-126.839c-15.972-8.402-35.327-7.003-49.927 3.607-14.599 10.604-21.91 28.581-18.859 46.37l46.086 268.658-195.458 190.26c-12.937 12.593-17.599 31.441-12.022 48.613s20.422 29.685 38.29 32.275l269.723 39.091 120.634 244.434c7.986 16.182 24.467 26.426 42.512 26.426zM511.7 767.462l-89.157-180.655c-6.909-13.998-20.264-23.698-35.713-25.936l-199.207-28.871 144.408-140.567c11.19-10.892 16.298-26.593 13.658-41.987l-34.062-198.565 178.31 93.747c13.826 7.27 30.344 7.265 44.163-0.017l177.654-93.616-34.042 198.451c-2.64 15.394 2.469 31.095 13.659 41.987l144.407 140.567-199.208 28.871c-15.445 2.239-28.803 11.939-35.709 25.936l-89.16 180.655z" />
<glyph unicode="&#xe90b;" glyph-name="star-empty" d="M554.209 895.563c-7.986 16.182-24.466 26.426-42.512 26.426s-34.526-10.245-42.512-26.426l-120.634-244.434-269.723-39.091c-17.868-2.59-32.714-15.103-38.29-32.275s-0.915-36.020 12.022-48.613l195.458-190.26-46.086-268.658c-3.052-17.789 4.26-35.766 18.859-46.37 14.599-10.61 33.955-12.009 49.927-3.607l241.252 126.839 240.664-126.822c15.974-8.414 35.339-7.031 49.948 3.578 14.615 10.604 21.931 28.587 18.881 46.382l-46.091 268.658 195.459 190.26c12.937 12.593 17.601 31.441 12.026 48.613-5.581 17.172-20.423 29.685-38.292 32.275l-269.722 39.091-120.636 244.434z" />
<glyph unicode="&#xe90c;" glyph-name="spotify" d="M496.969 938.373c-274.193 0-496.484-222.26-496.484-496.464 0-274.193 222.291-496.466 496.484-496.466 274.196 0 496.485 222.282 496.485 496.476 0 274.195-222.289 496.455-496.485 496.455zM688.050 206.103c-8.037 0-13.517 2.774-21.017 7.357-71.959 43.536-161.696 66.417-256.881 66.417-53.136 0-106.604-6.833-156.61-17.228-8.126-1.769-18.341-4.887-24.478-4.887-18.846 0-31.403 14.96-31.403 31.21 0 20.834 12.012 31.251 27.002 34.109 61.321 13.979 122.389 21.966 185.821 21.966 108.631 0 205.455-24.945 288.771-74.879 12.394-7.236 19.651-14.625 19.651-33.007 0.009-17.917-14.544-31.058-30.857-31.058zM742.142 337.507c-10.771 0-17.541 4.36-24.88 8.62-80.753 47.926-192.695 79.76-315.259 79.76-62.864 0-117.13-8.81-162.038-20.772-9.68-2.675-15.101-5.542-24.165-5.542-21.339 0-38.781 17.424-38.781 38.921 0 21.107 10.246 35.623 30.878 41.438 55.81 15.341 112.82 27.142 195.764 27.142 129.961 0 255.68-32.362 354.512-91.511 16.573-9.48 22.671-21.572 22.671-39.238 0-21.457-17.119-38.819-38.701-38.819zM803.738 490.328c-10.094 0-16.102 2.464-25.569 7.652-89.845 53.881-229.326 83.549-364.181 83.549-67.33 0-135.695-6.855-198.328-23.844-7.217-1.806-16.312-5.421-25.447-5.421-26.487 0-46.816 20.958-46.816 47.433 0 26.993 16.716 42.133 34.744 47.452 70.78 20.845 149.776 30.556 235.656 30.556 145.787 0 299.176-29.991 411.21-95.772 15.099-8.571 25.569-21.461 25.569-45.099-0.022-27.052-21.765-46.505-46.837-46.505z" />
<glyph unicode="&#xe90d;" glyph-name="cart" d="M143.238 832c0 15.148 12.28 27.429 27.429 27.429h85.333c15.148 0 27.429-12.28 27.429-27.429v-59.794l571.86-40.847c7.589-0.542 14.614-4.214 19.394-10.138 4.776-5.923 6.879-13.566 5.804-21.1l-42.668-298.665c-1.931-13.513-13.502-23.552-27.151-23.552h-527.24v-115.807h441.995c62.234-0.048 112.673-50.516 112.673-112.764 0-62.277-50.487-112.761-112.764-112.761-62.274 0-112.761 50.483-112.761 112.761 0 21.171 5.833 40.982 15.982 57.907h-275.775c10.149-16.925 15.982-36.736 15.982-57.907 0-62.277-50.484-112.761-112.761-112.761s-112.762 50.483-112.762 112.761c0 52.816 36.312 97.152 85.333 109.403v487.701c-0.001 0.134-0.001 0.268 0 0.402v57.732h-57.905c-15.149 0-27.429 12.28-27.429 27.429zM283.428 717.209v-284.448h503.45l35.138 245.977-538.588 38.471zM198.095 149.332c0-31.978 25.925-57.904 57.905-57.904s57.905 25.925 57.905 57.904c0 31.982-25.925 57.907-57.905 57.907s-57.905-25.925-57.905-57.907zM667.429 149.332c0-31.978 25.925-57.904 57.904-57.904 31.982 0 57.907 25.925 57.907 57.904 0 31.982-25.925 57.907-57.907 57.907-31.978 0-57.904-25.925-57.904-57.907z" />
<glyph unicode="&#xe90e;" glyph-name="search" d="M166.4 533.334c0 143.741 116.526 260.266 260.266 260.266 143.742 0 260.269-116.526 260.269-260.266 0-143.742-116.526-260.269-260.269-260.269-143.741 0-260.266 116.526-260.266 260.269zM426.666 870.4c-186.157 0-337.066-150.91-337.066-337.066s150.91-337.069 337.066-337.069c79.243 0 152.098 27.346 209.647 73.114l232.535-232.53c14.996-14.996 39.306-14.996 54.303 0s14.996 39.306 0 54.303l-232.53 232.535c45.768 57.549 73.114 130.404 73.114 209.647 0 186.157-150.912 337.066-337.069 337.066z" />
<glyph unicode="&#xe90f;" glyph-name="pinterest" d="M496.969 938.394c-274.191 0-496.484-222.283-496.484-496.485s222.293-496.485 496.484-496.485c274.193 0 496.485 222.282 496.485 496.485s-222.292 496.485-496.485 496.485zM554.099 277.001c-45.925 0-89.116 24.824-103.908 53.015 0 0-24.703-97.978-29.895-116.882-18.416-66.842-72.592-133.703-76.806-139.177-2.939-3.811-9.427-2.622-10.097 2.436-1.148 8.515-14.985 92.836 1.288 161.609 8.136 34.537 54.682 231.75 54.682 231.75s-13.551 27.155-13.551 67.299c0 63.032 36.529 110.086 82.019 110.086 38.673 0 57.344-29.044 57.344-63.854 0-38.887-24.747-97.032-37.516-150.913-10.678-45.112 22.602-81.917 67.097-81.917 80.583 0 134.82 103.492 134.82 226.133 0 93.193-62.74 162.98-176.938 162.98-128.981 0-209.413-96.209-209.413-203.695 0-37.035 10.951-63.193 28.078-83.397 7.851-9.297 8.971-13.033 6.116-23.701-2.064-7.832-6.706-26.664-8.676-34.112-2.833-10.786-11.55-14.628-21.312-10.656-59.385 24.247-87.077 89.324-87.077 162.472 0 120.812 101.879 265.68 303.954 265.68 162.382 0 269.256-117.49 269.256-243.636 0.009-166.881-92.765-291.52-229.466-291.52z" />
<glyph unicode="&#xe910;" glyph-name="phone" d="M848.99-5.389h-11.52c-138.249 15.095-271.061 62.289-387.84 137.813-107.962 69.133-199.665 160.836-268.798 268.8-75.536 117.086-122.723 250.176-137.813 388.694-1.903 18.627 0.43 37.443 6.827 55.040 5.821 15.875 14.822 30.394 26.453 42.667 11.944 13.082 26.472 23.543 42.667 30.72 16.318 7.598 34.055 11.669 52.053 11.947h128c31.296 0.4 61.654-10.681 85.333-31.147 23.468-20.151 38.663-48.262 42.665-78.933 5.005-37.868 14.165-75.069 27.307-110.933 8.828-22.835 10.756-47.759 5.547-71.68-4.757-23.732-16.149-45.627-32.853-63.147l-30.718-30.72c50.080-78.746 116.777-145.588 195.412-195.84l30.72 30.72c17.566 17.126 39.599 28.954 63.573 34.133 23.893 5.175 48.768 3.396 71.68-5.12 35.644-13.478 72.725-22.784 110.507-27.733 31.057-3.934 59.593-19.115 80.213-42.667 20.16-23.804 30.933-54.148 30.293-85.333v-128c-0.094-17.894-3.942-35.567-11.29-51.883-7.351-16.316-18.039-30.908-31.377-42.837-23.3-21.393-53.7-33.399-85.333-33.707l-1.707-0.853zM299.018 844.958h-128c-5.856-0.022-11.652-1.181-17.067-3.413-5.539-2.483-10.485-6.12-14.507-10.667-3.868-4.393-6.904-9.453-8.96-14.933-1.067-5.782-1.067-11.711 0-17.493 13.628-125.018 56.292-245.12 124.587-350.72 61.786-97.314 143.873-180.13 240.638-242.773 105.536-68.105 225.455-110.754 350.293-124.587 5.623-0.081 11.226 0.636 16.64 2.133 5.483 2.057 10.543 5.090 14.933 8.96 4.527 3.947 8.038 8.922 10.24 14.507 2.445 5.363 3.755 11.174 3.84 17.067v128c0.209 10.462-3.435 20.638-10.24 28.587-6.754 7.898-16.162 13.056-26.453 14.507-43.721 5.875-86.656 16.606-128 32-7.723 3.063-16.175 3.806-24.32 2.133-7.859-1.937-15.070-5.909-20.907-11.52l-53.76-54.187c-6.643-6.677-15.309-10.97-24.649-12.203s-18.825 0.657-26.978 5.376c-113.924 64.853-208.142 159.369-272.638 273.493-4.616 8.108-6.447 17.504-5.215 26.751s5.463 17.836 12.041 24.45l54.187 54.187c5.265 5.606 8.916 12.53 10.569 20.041s1.244 15.328-1.182 22.626c-15.411 41.338-26.145 84.273-32 128-1.789 10.054-6.896 19.217-14.507 26.027-7.424 8.051-17.658 12.94-28.587 13.653z" />
<glyph unicode="&#xe911;" glyph-name="package" d="M497.314 848.46c5.195 2.922 11.537 2.922 16.732 0l168.321-94.679c0.171-0.093 0.341-0.188 0.51-0.287l168.291-94.664c5.373-3.022 8.699-8.709 8.699-14.875v-379.258c0-6.167-3.327-11.853-8.699-14.875l-337.121-189.631c-5.195-2.922-11.537-2.922-16.732 0l-337.12 189.631c-5.374 3.022-8.699 8.709-8.699 14.875v379.258c0 6.167 3.326 11.853 8.699 14.875l337.12 189.63zM639.429 738.77l-133.748 75.234-302.309-170.049 133.747-75.232 302.31 170.047zM371.93 549.142l133.75-75.234 302.308 170.048-133.748 75.234-302.31-170.048zM328.483 534.416l-142.856 80.357v-340.095l302.987-170.43v340.098l-159.621 89.784c-0.171 0.093-0.341 0.189-0.51 0.287zM522.747 104.248l302.986 170.43v340.095l-302.986-170.428v-340.098z" />
<glyph unicode="&#xe912;" glyph-name="menu" d="M51.2 881.231h921.6c28.277 0 51.2-22.923 51.2-51.2s-22.923-51.2-51.2-51.2h-921.6c-28.277 0-51.2 22.923-51.2 51.2s22.923 51.2 51.2 51.2zM51.2 487.385h921.6c28.277 0 51.2-22.923 51.2-51.2s-22.923-51.2-51.2-51.2h-921.6c-28.277 0-51.2 22.923-51.2 51.2s22.923 51.2 51.2 51.2zM51.2 93.538h921.6c28.277 0 51.2-22.923 51.2-51.2s-22.923-51.2-51.2-51.2h-921.6c-28.277 0-51.2 22.923-51.2 51.2s22.923 51.2 51.2 51.2z" />
<glyph unicode="&#xe913;" glyph-name="list-check" d="M338.298 768.984c6.52-6.52 6.52-17.091 0-23.611l-103.059-103.060c-6.52-6.52-17.091-6.52-23.611 0l-61.836 61.836c-6.52 6.52-6.52 17.092 0 23.612s17.091 6.52 23.611 0l50.031-50.031 91.254 91.254c6.518 6.52 17.090 6.52 23.61 0zM338.298 521.641c6.52-6.52 6.52-17.092 0-23.612l-103.059-103.059c-3.132-3.13-7.377-4.891-11.805-4.891-4.429 0-8.676 1.761-11.807 4.891l-61.836 61.836c-6.52 6.52-6.52 17.092 0 23.612 6.52 6.518 17.091 6.518 23.611 0l50.031-50.031 91.254 91.254c6.518 6.52 17.090 6.52 23.61 0zM338.298 274.298c6.52-6.52 6.52-17.092 0-23.612l-103.059-103.059c-3.132-3.132-7.377-4.891-11.805-4.891-4.429 0-8.676 1.759-11.807 4.891l-61.836 61.836c-6.52 6.52-6.52 17.090 0 23.61s17.091 6.52 23.611 0l50.031-50.029 91.254 91.254c6.518 6.52 17.090 6.52 23.61 0zM454.082 695.343c0 9.22 7.475 16.696 16.696 16.696h371.015c9.22 0 16.696-7.475 16.696-16.696s-7.475-16.696-16.696-16.696h-371.015c-9.22 0-16.696 7.475-16.696 16.696zM454.082 448c0 9.22 7.475 16.696 16.696 16.696h371.015c9.22 0 16.696-7.475 16.696-16.696s-7.475-16.696-16.696-16.696h-371.015c-9.22 0-16.696 7.475-16.696 16.696zM454.082 200.657c0 9.22 7.475 16.696 16.696 16.696h371.015c9.22 0 16.696-7.475 16.696-16.696s-7.475-16.696-16.696-16.696h-371.015c-9.22 0-16.696 7.475-16.696 16.696z" />
<glyph unicode="&#xe914;" glyph-name="linkedin" horiz-adv-x="993" d="M496.485 938.394c-274.159 0-496.485-222.326-496.485-496.485s222.326-496.485 496.485-496.485c274.159 0 496.485 222.326 496.485 496.485s-222.326 496.485-496.485 496.485zM352.213 187.848h-120.917v363.781h120.917v-363.781zM291.757 601.302h-0.788c-40.576 0-66.818 27.933-66.818 62.842 0 35.697 27.045 62.856 68.409 62.856s66.817-27.159 67.605-62.856c0-34.908-26.242-62.842-68.408-62.842zM788.213 187.848h-120.903v194.613c0 48.91-17.507 82.268-61.257 82.268-33.401 0-53.295-22.5-62.039-44.221-3.196-7.773-3.975-18.637-3.975-29.507v-203.152h-120.91c0 0 1.583 329.65 0 363.781h120.91v-51.507c16.067 24.787 44.817 60.044 108.969 60.044 79.552 0 139.205-51.991 139.205-163.725v-208.592z" />
<glyph unicode="&#xe915;" glyph-name="instagram" d="M591.999 441.909c0-52.485-42.546-95.030-95.030-95.030s-95.030 42.546-95.030 95.030c0 52.485 42.546 95.030 95.030 95.030s95.030-42.546 95.030-95.030zM719.211 610.046c-4.568 12.378-11.854 23.583-21.324 32.78-9.197 9.469-20.393 16.756-32.78 21.325-10.045 3.901-25.138 8.545-52.931 9.811-30.068 1.371-39.083 1.667-115.206 1.667-76.127 0-85.144-0.288-115.203-1.659-27.797-1.273-42.893-5.917-52.931-9.818-12.387-4.568-23.592-11.856-32.781-21.325-9.47-9.197-16.758-20.396-21.333-32.78-3.901-10.048-8.545-25.144-9.811-52.941-1.371-30.059-1.667-39.076-1.667-115.203 0-76.124 0.295-85.138 1.667-115.206 1.265-27.794 5.909-42.887 9.811-52.931 4.576-12.387 11.856-23.583 21.326-32.78 9.197-9.47 20.395-16.756 32.779-21.324 10.048-3.91 25.144-8.555 52.941-9.818 30.059-1.372 39.067-1.66 115.197-1.66 76.136 0 85.15 0.289 115.203 1.66 27.797 1.263 42.896 5.908 52.941 9.818 24.865 9.588 44.516 29.24 54.104 54.104 3.904 10.045 8.546 25.138 9.818 52.931 1.372 30.068 1.66 39.083 1.66 115.206 0 76.127-0.289 85.144-1.66 115.203-1.263 27.797-5.908 42.893-9.818 52.941zM496.969 295.514c-80.856 0-146.401 65.539-146.401 146.395s65.545 146.395 146.401 146.395c80.849 0 146.395-65.539 146.395-146.395s-65.545-146.395-146.395-146.395zM649.151 559.88c-18.894 0-34.211 15.317-34.211 34.211s15.317 34.211 34.211 34.211c18.894 0 34.214-15.317 34.214-34.211-0.009-18.894-15.32-34.211-34.214-34.211zM496.969 938.394c-274.158 0-496.484-222.326-496.484-496.485s222.326-496.485 496.484-496.485c274.159 0 496.485 222.326 496.485 496.485s-222.326 496.485-496.485 496.485zM780.341 324.372c-1.378-30.351-6.203-51.070-13.25-69.207-14.811-38.294-45.084-68.568-83.378-83.378-18.128-7.044-38.856-11.863-69.198-13.25-30.4-1.384-40.113-1.719-117.537-1.719-77.433 0-87.136 0.335-117.546 1.719-30.341 1.387-51.070 6.206-69.198 13.25-19.030 7.159-36.257 18.379-50.5 32.886-14.5 14.237-25.72 31.471-32.879 50.493-7.045 18.131-11.871 38.856-13.25 69.198-1.402 30.41-1.727 40.122-1.727 117.546s0.326 87.136 1.72 117.54c1.379 30.348 6.197 51.067 13.242 69.204 7.159 19.022 18.386 36.257 32.894 50.492 14.235 14.508 31.47 25.728 50.493 32.887 18.135 7.045 38.857 11.864 69.205 13.25 30.4 1.386 40.113 1.72 117.537 1.72s87.136-0.333 117.54-1.727c30.348-1.379 51.067-6.197 69.204-13.235 19.022-7.159 36.256-18.386 50.499-32.894 14.5-14.242 25.727-31.47 32.88-50.492 7.053-18.137 11.872-38.856 13.256-69.204 1.387-30.403 1.713-40.116 1.713-117.54s-0.326-87.136-1.719-117.537z" />
<glyph unicode="&#xe916;" glyph-name="file" d="M298.668 812.8c-36.526 0-66.134-29.609-66.134-66.133v-597.334c0-36.524 29.608-66.132 66.134-66.132h426.665c36.526 0 66.135 29.609 66.135 66.132v450.135h-151.468c-34.168 0-61.868 27.697-61.868 61.865v151.468h-279.465zM616.532 785.647v-124.315c0-12.959 10.506-23.465 23.468-23.465h124.314l-147.781 147.78zM194.134 746.667c0 57.732 46.801 104.533 104.534 104.533h298.665c5.094 0 9.976-2.023 13.578-5.624l213.332-213.333c3.602-3.602 5.624-8.484 5.624-13.576v-469.335c0-57.731-46.802-104.532-104.535-104.532h-426.665c-57.733 0-104.534 46.802-104.534 104.532v597.334zM364.8 661.332c0 10.604 8.596 19.2 19.2 19.2h42.668c10.604 0 19.2-8.596 19.2-19.2s-8.596-19.2-19.2-19.2h-42.668c-10.604 0-19.2 8.596-19.2 19.2zM364.8 405.332c0 10.604 8.596 19.2 19.2 19.2h256c10.604 0 19.2-8.596 19.2-19.2s-8.596-19.2-19.2-19.2h-256c-10.604 0-19.2 8.596-19.2 19.2zM535.468 234.668c0 10.604 8.596 19.2 19.2 19.2h85.332c10.604 0 19.2-8.596 19.2-19.2s-8.596-19.2-19.2-19.2h-85.332c-10.604 0-19.2 8.596-19.2 19.2z" />
<glyph unicode="&#xe917;" glyph-name="facebook" d="M1024 448c0 282.8-229.2 512-512 512s-512-229.2-512-512c0-282.8 229.2-512 512-512 3.002 0 6 0 8.998 0.202v398.397h-109.997v128.202h109.997v94.4c0 109.4 66.803 169 164.403 169 46.8 0 86.998-3.4 98.598-5v-114.4h-67.2c-53.002 0-63.398-25.2-63.398-62.198v-81.6h126.998l-16.602-128.202h-110.397v-379.002c214 61.402 370.598 258.403 370.598 492.202z" />
<glyph unicode="&#xe918;" glyph-name="exit" d="M210.745 749.255c24.994 24.993 65.516 24.993 90.51 0l210.745-210.746 210.746 210.746c24.992 24.993 65.517 24.993 90.509 0s24.992-65.516 0-90.51l-210.745-210.745 210.745-210.746c24.992-24.992 24.992-65.517 0-90.509s-65.517-24.992-90.509 0l-210.746 210.744-210.745-210.744c-24.994-24.992-65.516-24.992-90.51 0s-24.993 65.517 0 90.509l210.746 210.746-210.746 210.745c-24.993 24.994-24.993 65.516 0 90.51z" />
<glyph unicode="&#xe919;" glyph-name="dollar" d="M531.2 832c0 10.604-8.596 19.2-19.2 19.2s-19.2-8.596-19.2-19.2v-108.8h-66.135c-81.295 0-147.2-65.905-147.2-147.2s65.905-147.2 147.2-147.2h170.668c60.088 0 108.8-48.712 108.8-108.8s-48.712-108.8-108.8-108.8h-170.235c-44.224 2.071-82.798 30.738-97.523 72.515-3.525 10.002-14.49 15.252-24.492 11.727-9.999-3.525-15.25-14.49-11.725-24.492 19.981-56.691 72.425-95.539 132.48-98.132 0.276-0.013 0.55-0.018 0.827-0.018h66.135v-108.8c0-10.604 8.596-19.2 19.2-19.2s19.2 8.596 19.2 19.2v108.8h66.132c81.295 0 147.2 65.905 147.2 147.2s-65.905 147.2-147.2 147.2h-170.668c-60.088 0-108.8 48.712-108.8 108.8s48.712 108.8 108.8 108.8h170.237c44.221-2.071 82.798-30.738 97.521-72.515 3.525-10.002 14.49-15.252 24.492-11.727s15.25 14.49 11.725 24.492c-19.981 56.691-72.425 95.539-132.48 98.132-0.274 0.012-0.55 0.018-0.827 0.018h-66.132v108.8z" />
<glyph unicode="&#xe91a;" glyph-name="email" d="M618.662 905.026c-103.155 24.073-211.42 12.543-307.192-32.716s-173.416-121.585-220.309-216.567c-46.893-94.982-60.276-203.033-37.973-306.589 22.303-103.552 78.98-196.514 160.815-263.77 81.836-67.26 184.017-104.853 289.929-106.675s209.323 32.239 293.423 96.644c18.709 14.327 22.259 41.105 7.936 59.814-14.327 18.709-41.109 22.259-59.819 7.932-68.809-52.693-153.421-80.559-240.073-79.070-86.656 1.489-170.258 32.252-237.215 87.279s-113.329 131.089-131.576 215.812c-18.248 84.727-7.298 173.133 31.069 250.846s101.895 140.161 180.253 177.191c78.359 37.030 166.941 46.464 251.34 26.767s159.654-67.365 213.53-135.254c53.871-67.889 83.196-152.007 83.2-238.676v-42.662c0-22.63-8.99-44.335-24.994-60.339-16-16.004-37.709-24.994-60.339-24.994s-44.335 8.99-60.339 24.994c-16.004 16.004-24.994 37.709-24.994 60.339v213.334c0 23.564-19.102 42.667-42.667 42.667-23.561 0-42.658-19.095-42.667-42.652-35.657 26.782-79.974 42.652-128 42.652-117.821 0-213.333-95.513-213.333-213.333s95.513-213.333 213.333-213.333c63.492 0 120.508 27.738 159.586 71.753 5.478-7.706 11.627-14.989 18.402-21.764 32.004-32.009 75.413-49.988 120.678-49.988s88.674 17.98 120.678 49.988c32.009 32.004 49.988 75.413 49.988 120.678v42.671c-0.004 105.926-35.844 208.736-101.692 291.712-65.843 82.976-157.824 141.236-260.979 165.31zM384 448c0 70.694 57.306 128 128 128s128-57.306 128-128c0-70.694-57.306-128-128-128s-128 57.306-128 128z" />
<glyph unicode="&#xe91b;" glyph-name="arrow-right" d="M442.772 318.142c-8.087 7.56-8.087 19.82 0 27.38l109.592 102.478-109.592 102.478c-8.087 7.56-8.087 19.82 0 27.38 8.084 7.563 21.197 7.563 29.28 0l124.235-116.167c8.087-7.563 8.087-19.82 0-27.383l-124.235-116.167c-8.084-7.563-21.197-7.563-29.28 0zM512 929.882c266.138 0 481.882-215.746 481.882-481.882 0-266.138-215.745-481.882-481.882-481.882-266.136 0-481.882 215.745-481.882 481.882 0 266.136 215.746 481.882 481.882 481.882zM512 960c-282.77 0-512-229.23-512-512s229.23-512 512-512c282.769 0 512 229.231 512 512s-229.231 512-512 512z" />
<glyph unicode="&#xe91c;" glyph-name="arrow-left" d="M581.228 577.858c8.087-7.56 8.087-19.82 0-27.38l-109.592-102.478 109.592-102.478c8.087-7.56 8.087-19.82 0-27.38-8.084-7.563-21.197-7.563-29.28 0l-124.235 116.167c-8.087 7.563-8.087 19.82 0 27.383l124.235 116.167c8.084 7.563 21.197 7.563 29.28 0zM512-33.882c-266.136 0-481.882 215.745-481.882 481.882s215.746 481.882 481.882 481.882c266.138 0 481.882-215.746 481.882-481.882 0-266.138-215.745-481.882-481.882-481.882zM512-64c282.769 0 512 229.231 512 512s-229.231 512-512 512c-282.77 0-512-229.23-512-512s229.23-512 512-512z" />
<glyph unicode="&#xe91d;" glyph-name="account" d="M858.5 196.4c-18.864 44.683-46.237 85.27-80.6 119.501-34.256 34.33-74.836 61.7-119.501 80.6-0.399 0.201-0.797 0.3-1.2 0.501 62.299 44.997 102.802 118.298 102.802 200.999 0 137-111.002 248-248.002 248s-248-111-248-248c0-82.701 40.5-156.001 102.8-201.101-0.399-0.197-0.801-0.3-1.2-0.497-44.8-18.9-85-46.003-119.5-80.6-34.329-34.26-61.699-74.84-80.6-119.501-18.568-43.725-28.582-90.606-29.5-138.101-0.027-1.068 0.161-2.128 0.55-3.123s0.975-1.898 1.721-2.662c0.746-0.764 1.637-1.371 2.62-1.788 0.984-0.413 2.041-0.625 3.109-0.625h60c4.4 0 7.9 3.5 8 7.801 2 77.199 33 149.5 87.8 204.299 56.7 56.7 131.999 87.899 212.2 87.899s155.502-31.199 212.202-87.899c54.799-54.799 85.797-127.1 87.797-204.299 0.102-4.4 3.602-7.801 8.002-7.801h59.999c1.068 0 2.125 0.212 3.109 0.625 0.984 0.417 1.876 1.024 2.622 1.788 0.742 0.764 1.328 1.668 1.719 2.662s0.578 2.055 0.552 3.123c-1.002 47.799-10.902 94.299-29.502 138.2zM512 425.999c-45.901 0-89.099 17.902-121.6 50.403-32.5 32.497-50.4 75.699-50.4 121.599s17.9 89.1 50.4 121.6c32.501 32.5 75.699 50.4 121.6 50.4s89.099-17.9 121.6-50.4c32.501-32.5 50.399-75.7 50.399-121.6s-17.898-89.101-50.399-121.599c-32.501-32.501-75.699-50.403-121.6-50.403z" />
<glyph unicode="&#xe91e;" glyph-name="tag" horiz-adv-x="983" d="M348.16 601.6c-5.655 0-10.24-4.585-10.24-10.24s4.585-10.24 10.24-10.24c5.655 0 10.24 4.585 10.24 10.24s-4.585 10.24-10.24 10.24zM276.48 591.36c0 39.588 32.092 71.68 71.68 71.68s71.68-32.092 71.68-71.68c0-39.588-32.092-71.68-71.68-71.68s-71.68 32.092-71.68 71.68zM178.108 761.412c28.806 28.806 67.874 44.988 108.612 44.988h158.065c30.126-0.011 59.032-11.984 80.335-33.285l332.472-332.43c10.555-10.555 18.932-23.089 24.642-36.88 5.714-13.791 8.655-28.57 8.655-43.5s-2.941-29.708-8.655-43.5c-5.71-13.795-14.086-26.325-24.642-36.88l-197.997-197.997c-10.555-10.555-23.085-18.932-36.88-24.642-13.791-5.714-28.57-8.655-43.5-8.655s-29.708 2.941-43.5 8.655c-13.791 5.71-26.325 14.086-36.88 24.642l-332.428 332.431c-21.332 21.332-33.287 50.242-33.287 80.376v158.065c0 40.737 16.183 79.806 44.988 108.612zM286.72 744.96c-24.442 0-47.883-9.71-65.167-26.993s-26.993-40.724-26.993-65.167v-158.065c0-13.857 5.494-27.136 15.292-36.934l332.43-332.431c4.85-4.85 10.609-8.7 16.945-11.321 6.337-2.626 13.128-3.977 19.988-3.977s13.652 1.352 19.988 3.977c6.337 2.621 12.091 6.472 16.941 11.321l198.005 198.001c4.85 4.85 8.7 10.609 11.321 16.945 2.626 6.337 3.977 13.128 3.977 19.988s-1.352 13.652-3.977 19.988c-2.621 6.337-6.472 12.091-11.321 16.941l-332.472 332.433c0 0 0 0 0 0-9.785 9.784-23.056 15.285-36.893 15.293h-158.065z" />
<glyph unicode="&#xf105;" glyph-name="Calendar" d="M682.667 864c17.673 0 32-14.327 32-32v-53.333h53.333c64.802 0 117.333-52.532 117.333-117.333v-512c0-64.802-52.531-117.333-117.333-117.333h-512c-64.801 0-117.333 52.531-117.333 117.333v512c0 64.801 52.532 117.333 117.333 117.333h53.333v53.333c0 17.673 14.327 32 32 32s32-14.327 32-32v-53.333h277.333v53.333c0 17.673 14.327 32 32 32zM821.333 661.333c0 29.455-23.876 53.333-53.333 53.333h-53.333v-53.333c0-17.673-14.327-32-32-32s-32 14.327-32 32v53.333h-277.333v-53.333c0-17.673-14.327-32-32-32s-32 14.327-32 32v53.333h-53.333c-29.455 0-53.333-23.878-53.333-53.333v-138.667h618.667v138.667zM821.333 458.667h-618.667v-309.333c0-29.457 23.878-53.333 53.333-53.333h512c29.457 0 53.333 23.876 53.333 53.333v309.333zM341.333 352c-17.673 0-32-14.327-32-32v-85.333c0-17.673 14.327-32 32-32h85.333c17.673 0 32 14.327 32 32v85.333c0 17.673-14.327 32-32 32h-85.333zM373.333 266.667v21.333h21.333v-21.333h-21.333z" />
</font>
</defs>
</svg>
