<svg width="385" height="133" viewBox="0 0 385 133" fill="none" xmlns="http://www.w3.org/2000/svg">
<g clip-path="url(#clip0_2405_56852)">
<path d="M0.344604 111.137V108.555H13.9044V111.137H8.65005V125.552H5.59513V111.137H0.344604Z" fill="#2A2970"/>
<path d="M25.1589 125.552V108.555H36.2127V111.137H28.2366V115.751H35.6373V118.333H28.2366V122.97H36.277V125.552H25.1552H25.1589Z" fill="#2A2970"/>
<path d="M48.0044 108.555H51.771L56.8171 120.869H57.0177L62.0638 108.555H65.8304V125.552H62.8777V113.878H62.7187L58.0209 125.503H55.8139L51.1161 113.851H50.9571V125.552H48.0044V108.555Z" fill="#2A2970"/>
<path d="M80.0109 125.552H76.7251L82.71 108.555H86.5107L92.5032 125.552H89.2173L84.6785 112.042H84.546L80.0147 125.552H80.0109ZM80.1169 118.89H89.0811V121.362H80.1169V118.89Z" fill="#2A2970"/>
<path d="M123.593 125.552H117.836V108.555H123.711C125.399 108.555 126.849 108.896 128.064 109.573C129.279 110.251 130.211 111.224 130.865 112.492C131.517 113.76 131.846 115.274 131.846 117.039C131.846 118.803 131.517 120.332 130.862 121.604C130.207 122.876 129.264 123.852 128.03 124.534C126.8 125.215 125.32 125.556 123.593 125.556V125.552ZM120.913 122.887H123.446C124.631 122.887 125.619 122.671 126.41 122.236C127.201 121.801 127.795 121.153 128.193 120.287C128.59 119.42 128.791 118.337 128.791 117.039C128.791 115.74 128.59 114.657 128.193 113.798C127.795 112.939 127.205 112.295 126.429 111.864C125.653 111.432 124.687 111.22 123.537 111.22H120.913V122.887Z" fill="#2A2970"/>
<path d="M143.408 125.552V108.555H154.461V111.137H146.485V115.751H153.886V118.333H146.485V122.97H154.526V125.552H143.404H143.408Z" fill="#2A2970"/>
<path d="M180.702 125.552V108.555H187.077C188.383 108.555 189.481 108.797 190.367 109.286C191.253 109.774 191.926 110.44 192.385 111.288C192.843 112.136 193.07 113.102 193.07 114.18C193.07 115.259 192.839 116.24 192.381 117.084C191.923 117.932 191.245 118.594 190.348 119.079C189.451 119.563 188.349 119.806 187.036 119.806H182.811V117.273H186.619C187.384 117.273 188.008 117.141 188.493 116.876C188.981 116.611 189.341 116.244 189.576 115.782C189.81 115.316 189.928 114.782 189.928 114.18C189.928 113.579 189.81 113.045 189.576 112.587C189.341 112.129 188.978 111.769 188.489 111.512C188.001 111.254 187.369 111.126 186.6 111.126H183.78V125.548H180.702V125.552Z" fill="#2A2970"/>
<path d="M204.683 125.552H201.397L207.382 108.555H211.183L217.176 125.552H213.89L209.351 112.042H209.218L204.687 125.552H204.683ZM204.789 118.89H213.753V121.362H204.789V118.89Z" fill="#2A2970"/>
<path d="M228.059 125.552V108.555H234.434C235.74 108.555 236.838 108.782 237.724 109.237C238.61 109.691 239.283 110.327 239.741 111.141C240.2 111.958 240.427 112.909 240.427 113.991C240.427 115.074 240.196 116.024 239.734 116.827C239.272 117.625 238.594 118.242 237.697 118.678C236.8 119.113 235.699 119.329 234.393 119.329H229.854V116.774H233.98C234.745 116.774 235.369 116.668 235.854 116.456C236.342 116.244 236.702 115.929 236.936 115.517C237.171 115.104 237.288 114.597 237.288 113.995C237.288 113.393 237.171 112.874 236.933 112.447C236.694 112.019 236.331 111.69 235.846 111.466C235.358 111.243 234.729 111.129 233.961 111.129H231.141V125.552H228.063H228.059ZM236.838 117.852L241.044 125.552H237.606L233.473 117.852H236.834H236.838Z" fill="#2A2970"/>
<path d="M266.456 114.29H263.352C263.265 113.783 263.098 113.329 262.864 112.935C262.629 112.542 262.33 112.205 261.974 111.928C261.618 111.652 261.217 111.444 260.766 111.3C260.316 111.16 259.831 111.088 259.309 111.088C258.385 111.088 257.568 111.319 256.852 111.781C256.137 112.242 255.58 112.916 255.175 113.806C254.77 114.696 254.569 115.778 254.569 117.054C254.569 118.33 254.774 119.446 255.179 120.336C255.584 121.226 256.144 121.892 256.856 122.346C257.568 122.797 258.381 123.024 259.301 123.024C259.809 123.024 260.286 122.956 260.732 122.819C261.179 122.683 261.58 122.482 261.936 122.217C262.292 121.952 262.595 121.627 262.841 121.237C263.087 120.851 263.257 120.408 263.352 119.908L266.456 119.923C266.339 120.73 266.089 121.491 265.706 122.198C265.32 122.906 264.821 123.531 264.2 124.068C263.579 124.606 262.856 125.03 262.027 125.329C261.198 125.632 260.274 125.783 259.264 125.783C257.768 125.783 256.436 125.439 255.262 124.746C254.089 124.053 253.165 123.058 252.491 121.752C251.817 120.446 251.48 118.882 251.48 117.054C251.48 115.225 251.821 113.654 252.503 112.352C253.184 111.05 254.111 110.051 255.281 109.362C256.455 108.669 257.783 108.324 259.264 108.324C260.21 108.324 261.088 108.457 261.902 108.722C262.716 108.987 263.439 109.377 264.075 109.888C264.711 110.399 265.237 111.024 265.646 111.762C266.059 112.5 266.327 113.344 266.456 114.29Z" fill="#2A2970"/>
<path d="M277.934 125.552V108.555H288.987V111.137H281.011V115.751H288.412V118.333H281.011V122.97H289.052V125.552H277.93H277.934Z" fill="#2A2970"/>
<path d="M303.857 108.555V125.552H300.779V108.555H303.857Z" fill="#2A2970"/>
<path d="M315.849 125.552V108.555H322.224C323.53 108.555 324.628 108.782 325.514 109.237C326.4 109.691 327.073 110.327 327.531 111.141C327.99 111.958 328.217 112.909 328.217 113.991C328.217 115.074 327.986 116.024 327.524 116.827C327.062 117.625 326.384 118.242 325.487 118.678C324.59 119.113 323.489 119.329 322.183 119.329H317.644V116.774H321.77C322.535 116.774 323.159 116.668 323.644 116.456C324.132 116.244 324.492 115.929 324.726 115.517C324.961 115.104 325.078 114.597 325.078 113.995C325.078 113.393 324.961 112.874 324.723 112.447C324.484 112.019 324.121 111.69 323.636 111.466C323.148 111.243 322.519 111.129 321.751 111.129H318.931V125.552H315.853H315.849ZM324.628 117.852L328.834 125.552H325.396L321.263 117.852H324.624H324.628Z" fill="#2A2970"/>
<path d="M354.882 117.054C354.882 118.886 354.542 120.453 353.857 121.756C353.175 123.058 352.244 124.057 351.067 124.746C349.889 125.439 348.561 125.783 347.069 125.783C345.578 125.783 344.249 125.435 343.072 124.742C341.894 124.05 340.967 123.05 340.282 121.748C339.597 120.446 339.256 118.882 339.256 117.054C339.256 115.225 339.597 113.654 340.282 112.352C340.963 111.05 341.894 110.051 343.072 109.362C344.249 108.673 345.578 108.324 347.069 108.324C348.561 108.324 349.889 108.669 351.067 109.362C352.244 110.054 353.171 111.05 353.857 112.352C354.542 113.654 354.882 115.222 354.882 117.054ZM351.786 117.054C351.786 115.763 351.585 114.677 351.184 113.787C350.783 112.897 350.23 112.227 349.518 111.769C348.807 111.311 347.993 111.084 347.069 111.084C346.146 111.084 345.328 111.311 344.62 111.769C343.912 112.227 343.356 112.897 342.954 113.787C342.553 114.677 342.352 115.763 342.352 117.054C342.352 118.345 342.553 119.431 342.954 120.321C343.356 121.21 343.908 121.88 344.62 122.338C345.328 122.797 346.146 123.024 347.069 123.024C347.993 123.024 348.811 122.797 349.518 122.338C350.226 121.88 350.783 121.21 351.184 120.321C351.585 119.435 351.786 118.345 351.786 117.054Z" fill="#2A2970"/>
<path d="M375.687 113.227C375.607 112.5 375.285 111.936 374.71 111.535C374.138 111.13 373.396 110.929 372.48 110.929C371.837 110.929 371.288 111.027 370.83 111.221C370.372 111.414 370.02 111.679 369.778 112.008C369.535 112.337 369.41 112.72 369.403 113.144C369.403 113.499 369.486 113.806 369.649 114.063C369.812 114.325 370.035 114.544 370.315 114.722C370.599 114.904 370.909 115.051 371.254 115.176C371.598 115.298 371.943 115.4 372.291 115.483L373.885 115.88C374.528 116.028 375.145 116.233 375.74 116.486C376.334 116.74 376.868 117.062 377.341 117.448C377.814 117.834 378.189 118.303 378.465 118.848C378.742 119.397 378.882 120.037 378.882 120.775C378.882 121.771 378.628 122.645 378.117 123.402C377.606 124.159 376.875 124.746 375.914 125.17C374.952 125.594 373.794 125.806 372.431 125.806C371.068 125.806 369.963 125.602 368.99 125.193C368.021 124.784 367.26 124.186 366.715 123.399C366.17 122.611 365.875 121.657 365.833 120.529H368.861C368.907 121.12 369.089 121.612 369.41 122.005C369.732 122.399 370.148 122.691 370.667 122.884C371.186 123.077 371.765 123.175 372.405 123.175C373.044 123.175 373.661 123.073 374.169 122.872C374.676 122.672 375.073 122.388 375.361 122.024C375.649 121.661 375.796 121.237 375.8 120.749C375.796 120.306 375.664 119.939 375.41 119.651C375.157 119.359 374.801 119.117 374.343 118.92C373.885 118.723 373.355 118.549 372.745 118.394L370.811 117.894C369.41 117.535 368.305 116.99 367.495 116.255C366.685 115.521 366.28 114.548 366.28 113.329C366.28 112.33 366.552 111.451 367.097 110.698C367.642 109.945 368.384 109.362 369.327 108.942C370.266 108.525 371.333 108.313 372.522 108.313C373.711 108.313 374.786 108.521 375.698 108.942C376.607 109.358 377.322 109.937 377.844 110.675C378.363 111.414 378.632 112.262 378.651 113.219H375.687V113.227Z" fill="#2A2970"/>
<path d="M56.2452 31.914L71.8908 16.2684C70.9065 15.0911 69.8541 13.9782 68.7412 12.9182L53.6672 27.9922C54.6515 29.1846 55.5108 30.4906 56.249 31.914H56.2452Z" stroke="#706FAA" stroke-width="0.579185" stroke-miterlimit="10"/>
<path d="M59.1295 42.0288L77.0313 24.1271C76.312 22.6961 75.5209 21.322 74.654 20.0046L58.0847 36.5739C58.5768 38.2812 58.9251 40.0982 59.1295 42.0288V42.0288Z" stroke="#706FAA" stroke-width="0.579185" stroke-miterlimit="10"/>
<path d="M53.6636 27.9919L68.7376 12.9179C67.6285 11.8656 66.4512 10.87 65.2171 9.93872L50.374 24.7818C51.5892 25.7319 52.687 26.8032 53.6674 27.9919H53.6636Z" stroke="#706FAA" stroke-width="0.579185" stroke-miterlimit="10"/>
<path d="M58.0848 36.5703L74.654 20.0011C73.7985 18.7026 72.8786 17.4534 71.8868 16.2686L56.2412 31.9141C56.987 33.3526 57.604 34.9085 58.0848 36.5741V36.5703Z" stroke="#706FAA" stroke-width="0.579185" stroke-miterlimit="10"/>
<path d="M32.722 19.4672C33.8615 19.4672 34.9706 19.5164 36.0457 19.6073L52.3689 3.28785C50.726 2.74274 49.0263 2.27333 47.2698 1.88721L29.686 19.471H32.722V19.4672Z" stroke="#706FAA" stroke-width="0.579185" stroke-miterlimit="10"/>
<path d="M41.6071 20.5462L57.0482 5.1088C55.5492 4.42741 53.9857 3.82172 52.3693 3.28418L36.0461 19.6074C38.0108 19.7739 39.8657 20.0881 41.6071 20.5462V20.5462Z" stroke="#706FAA" stroke-width="0.579185" stroke-miterlimit="10"/>
<path d="M46.3655 22.2911L61.3221 7.33453C59.9555 6.52443 58.5321 5.78247 57.0482 5.10864L41.6108 20.546C43.3068 20.9927 44.8967 21.5757 46.3692 22.2911H46.3655Z" stroke="#706FAA" stroke-width="0.579185" stroke-miterlimit="10"/>
<path d="M50.3741 24.786L65.2172 9.94294C63.9793 9.0117 62.6809 8.14103 61.3218 7.33472L46.3652 22.2913C47.8151 22.9954 49.1514 23.8283 50.3741 24.7822V24.786Z" stroke="#706FAA" stroke-width="0.579185" stroke-miterlimit="10"/>
<path d="M59.3421 46.0873C59.3421 46.8709 59.3118 47.6356 59.2702 48.3851L78.9966 28.6587C78.4212 27.0915 77.7663 25.5773 77.0319 24.1199L59.1301 42.0216C59.2664 43.3276 59.3421 44.6791 59.3421 46.0835V46.0873Z" stroke="#706FAA" stroke-width="0.579185" stroke-miterlimit="10"/>
<path d="M16.1453 0.509277L0 16.6545V23.1543L22.645 0.509277H16.1453Z" stroke="#706FAA" stroke-width="0.579185" stroke-miterlimit="10"/>
<path d="M3.14199 0.509277L0 3.65126V10.151L9.64173 0.509277H3.14199Z" stroke="#706FAA" stroke-width="0.579185" stroke-miterlimit="10"/>
<path d="M9.64174 0.509277L0 10.151V16.6545L16.1453 0.509277H9.64174Z" stroke="#706FAA" stroke-width="0.579185" stroke-miterlimit="10"/>
<path d="M0 0.509277V3.65126L3.14199 0.509277H0Z" stroke="#706FAA" stroke-width="0.579185" stroke-miterlimit="10"/>
<path d="M22.645 0.509277L0 23.1543V29.654L29.1448 0.509277H22.645Z" stroke="#706FAA" stroke-width="0.579185" stroke-miterlimit="10"/>
<path d="M57.8694 56.2891L80.5031 33.6555C80.0866 31.9368 79.5869 30.2712 78.9964 28.6624L59.27 48.3887C59.1073 51.2582 58.6341 53.8967 57.8694 56.2891V56.2891Z" stroke="#706FAA" stroke-width="0.579185" stroke-miterlimit="10"/>
<path d="M59.3421 46.087C59.3421 44.6826 59.2664 43.3311 59.1301 42.0251C58.9294 40.0945 58.5774 38.2737 58.0853 36.5702C57.6045 34.9045 56.9875 33.3525 56.2417 31.9102C55.5073 30.4906 54.6442 29.1808 53.66 27.9884C52.6795 26.8035 51.5817 25.7284 50.3666 24.7783C49.1439 23.8243 47.8076 22.9915 46.3577 22.2874C44.8851 21.5719 43.299 20.9927 41.5993 20.5423C39.858 20.0842 38.0031 19.77 36.0384 19.6034C34.9633 19.5126 33.8541 19.4634 32.7147 19.4634H22.1985V72.4494H32.7147C33.5929 72.4494 34.4484 72.4153 35.2888 72.3661C38.1734 72.1844 40.8271 71.6999 43.2384 70.92C50.5029 68.5692 55.5376 63.5648 57.8657 56.2928C58.6304 53.9003 59.1036 51.2618 59.2664 48.3924C59.308 47.6391 59.3383 46.8782 59.3383 46.0946L59.3421 46.087Z" stroke="#706FAA" stroke-width="0.579185" stroke-miterlimit="10"/>
<path d="M29.6865 19.467L47.2703 1.88705C45.4722 1.48957 43.6173 1.17537 41.7056 0.948242L23.1868 19.467H29.6865Z" stroke="#706FAA" stroke-width="0.579185" stroke-miterlimit="10"/>
<path d="M34.153 0.509277H29.1448L0 29.654V36.1538L35.6294 0.528205C35.141 0.516848 34.6489 0.509277 34.153 0.509277V0.509277Z" stroke="#706FAA" stroke-width="0.579185" stroke-miterlimit="10"/>
<path d="M22.2098 72.4497L2.99072 91.6688H9.49047L28.7096 72.4497H22.2098Z" stroke="#706FAA" stroke-width="0.579185" stroke-miterlimit="10"/>
<path d="M74.8661 71.7981L62.7222 83.9421C67.6547 80.7509 71.7431 76.6511 74.8661 71.7981V71.7981Z" stroke="#706FAA" stroke-width="0.579185" stroke-miterlimit="10"/>
<path d="M80.5072 33.6555L57.8736 56.2892C55.5455 63.5612 50.5107 68.5656 43.2463 70.9165L22.494 91.6687H28.9938L81.5104 39.1521C81.2719 37.2669 80.9388 35.4309 80.5072 33.6555Z" stroke="#706FAA" stroke-width="0.579185" stroke-miterlimit="10"/>
<path d="M81.5098 39.1521L28.9932 91.6687H34.1528C34.6071 91.6687 35.0576 91.6649 35.5081 91.6536L81.93 45.2317C81.8997 43.1496 81.7596 41.1244 81.5098 39.1521V39.1521Z" stroke="#706FAA" stroke-width="0.579185" stroke-miterlimit="10"/>
<path d="M35.2963 72.3625L15.9939 91.6649H22.4936L43.2459 70.9126C40.8345 71.6924 38.1809 72.1808 35.2963 72.3587V72.3625Z" stroke="#706FAA" stroke-width="0.579185" stroke-miterlimit="10"/>
<path d="M81.6193 52.0381C81.8275 50.1037 81.9373 48.12 81.9373 46.0872C81.9373 45.7995 81.9335 45.5156 81.9297 45.2317L35.5078 91.6536C37.9305 91.6044 40.2738 91.4227 42.5413 91.1198L81.6193 52.0419V52.0381Z" stroke="#706FAA" stroke-width="0.579185" stroke-miterlimit="10"/>
<path d="M32.7221 72.4497H28.7095L9.49036 91.6689H15.9901L35.2925 72.3665C34.4521 72.4195 33.5966 72.4497 32.7183 72.4497H32.7221Z" stroke="#706FAA" stroke-width="0.579185" stroke-miterlimit="10"/>
<path d="M62.7225 83.9388L74.8665 71.7948C77.1378 68.2629 78.8981 64.3373 80.0905 60.071L50.7905 89.371C55.1742 88.0726 59.1679 86.2404 62.7225 83.9388V83.9388Z" stroke="#706FAA" stroke-width="0.579185" stroke-miterlimit="10"/>
<path d="M50.7905 89.3709L80.0905 60.071C80.806 57.512 81.3208 54.828 81.6236 52.0381L42.5457 91.1161C45.4264 90.73 48.1785 90.1432 50.7943 89.3709H50.7905Z" stroke="#706FAA" stroke-width="0.579185" stroke-miterlimit="10"/>
<path d="M22.2059 20.4514L0 42.6535V49.1533L22.2059 26.9512V20.4514Z" stroke="#706FAA" stroke-width="0.579185" stroke-miterlimit="10"/>
<path d="M22.2059 26.9512L0 49.1533V55.6568L22.2059 33.4509V26.9512Z" stroke="#706FAA" stroke-width="0.579185" stroke-miterlimit="10"/>
<path d="M22.2059 33.4509L0 55.6568V62.1566L22.2059 39.9507V33.4509Z" stroke="#706FAA" stroke-width="0.579185" stroke-miterlimit="10"/>
<path d="M22.2059 39.9504L0 62.1563V68.6561L22.2059 46.4502V39.9504Z" stroke="#706FAA" stroke-width="0.579185" stroke-miterlimit="10"/>
<path d="M22.2059 19.4671H23.1863L41.7051 0.94827C39.7367 0.713567 37.7076 0.573502 35.6256 0.528076L0 36.1537V42.6534L22.2059 20.4513V19.4709V19.4671Z" stroke="#706FAA" stroke-width="0.579185" stroke-miterlimit="10"/>
<path d="M22.2059 59.4539L0 81.656V88.1595L22.2059 65.9536V59.4539Z" stroke="#706FAA" stroke-width="0.579185" stroke-miterlimit="10"/>
<path d="M22.2059 72.4493V65.9534L0 88.1593V91.6684H2.99057L22.2097 72.4493H22.2059Z" stroke="#706FAA" stroke-width="0.579185" stroke-miterlimit="10"/>
<path d="M22.2059 52.95L0 75.1558V81.6556L22.2059 59.4535V52.95Z" stroke="#706FAA" stroke-width="0.579185" stroke-miterlimit="10"/>
<path d="M22.2059 46.4507L0 68.6566V75.1563L22.2059 52.9504V46.4507Z" stroke="#706FAA" stroke-width="0.579185" stroke-miterlimit="10"/>
<path d="M131.304 21.1293L146.182 6.25217C144.895 5.39285 143.501 4.61682 142.002 3.93164L126.675 19.2592C128.522 19.6075 130.059 20.2435 131.304 21.1293Z" stroke="#706FAA" stroke-width="0.579185" stroke-miterlimit="10"/>
<path d="M135.347 30.0859L152.825 12.6082C151.932 11.3779 150.921 10.2157 149.793 9.14062L134.257 24.6764C134.984 26.2285 135.344 28.0493 135.347 30.0859Z" stroke="#706FAA" stroke-width="0.579185" stroke-miterlimit="10"/>
<path d="M109.375 30.0515L87.1726 52.2574V58.7572L109.375 36.5513V30.0515Z" stroke="#706FAA" stroke-width="0.579185" stroke-miterlimit="10"/>
<path d="M131.304 21.1291C130.059 20.2433 128.518 19.6073 126.674 19.259C125.599 19.0584 124.426 18.9524 123.143 18.9524H109.378V41.5482H123.143C123.4 41.5482 123.654 41.5444 123.903 41.5368C131.694 41.2794 135.351 37.0434 135.351 30.1235C135.351 30.1121 135.351 30.1008 135.351 30.0932C135.351 28.0566 134.988 26.2357 134.261 24.6837C133.591 23.2565 132.61 22.0603 131.308 21.1366L131.304 21.1291Z" stroke="#706FAA" stroke-width="0.579185" stroke-miterlimit="10"/>
<path d="M109.375 23.552L87.1726 45.7579V52.2576L109.375 30.0518V23.552Z" stroke="#706FAA" stroke-width="0.579185" stroke-miterlimit="10"/>
<path d="M112.918 0.509277L87.1726 26.2546V32.7582L119.418 0.509277H112.918Z" stroke="#706FAA" stroke-width="0.579185" stroke-miterlimit="10"/>
<path d="M109.375 18.9484H113.978L131.891 1.03912C129.994 0.758991 127.996 0.588642 125.895 0.535645L87.1726 39.2578V45.7575L109.379 23.5516V18.9484H109.375Z" stroke="#706FAA" stroke-width="0.579185" stroke-miterlimit="10"/>
<path d="M120.481 18.9485L137.243 2.18241C135.562 1.69787 133.776 1.31553 131.891 1.0354L113.981 18.9447H120.481V18.9485Z" stroke="#706FAA" stroke-width="0.579185" stroke-miterlimit="10"/>
<path d="M123.143 18.9485C124.426 18.9485 125.599 19.0545 126.675 19.2551L142.002 3.9275C140.522 3.25368 138.936 2.66692 137.248 2.18237L120.481 18.9485H123.143V18.9485Z" stroke="#706FAA" stroke-width="0.579185" stroke-miterlimit="10"/>
<path d="M134.253 24.676L149.789 9.14019C148.695 8.09538 147.495 7.13007 146.178 6.24805L131.301 21.1252C132.603 22.0488 133.583 23.2488 134.253 24.6722V24.676Z" stroke="#706FAA" stroke-width="0.579185" stroke-miterlimit="10"/>
<path d="M106.418 0.509277L87.1726 19.7549V26.2546L112.918 0.509277H106.418Z" stroke="#706FAA" stroke-width="0.579185" stroke-miterlimit="10"/>
<path d="M106.267 91.6686L109.375 88.5569V82.0571L99.7668 91.6686H106.267Z" stroke="#706FAA" stroke-width="0.579185" stroke-miterlimit="10"/>
<path d="M99.7668 91.6686L109.375 82.0571V75.5574L93.2671 91.6686H99.7668Z" stroke="#706FAA" stroke-width="0.579185" stroke-miterlimit="10"/>
<path d="M109.375 91.6686V88.5569L106.267 91.6686H109.375Z" stroke="#706FAA" stroke-width="0.579185" stroke-miterlimit="10"/>
<path d="M87.1726 91.6689H93.2673L109.375 75.5577V69.0542L87.1726 91.2601V91.6689Z" stroke="#706FAA" stroke-width="0.579185" stroke-miterlimit="10"/>
<path d="M93.4149 0.509277L87.1726 6.7554V13.2551L99.9185 0.509277H93.4149Z" stroke="#706FAA" stroke-width="0.579185" stroke-miterlimit="10"/>
<path d="M87.1726 91.2596L109.375 69.0537V62.554L87.1726 84.7599V91.2596Z" stroke="#706FAA" stroke-width="0.579185" stroke-miterlimit="10"/>
<path d="M99.9185 0.509277L87.1726 13.2551V19.7549L106.418 0.509277H99.9185Z" stroke="#706FAA" stroke-width="0.579185" stroke-miterlimit="10"/>
<path d="M87.1726 0.509277V6.7554L93.4149 0.509277H87.1726Z" stroke="#706FAA" stroke-width="0.579185" stroke-miterlimit="10"/>
<path d="M124.441 0.509277H119.422L87.1726 32.7582V39.2579L125.891 0.535776C125.41 0.524419 124.929 0.509277 124.437 0.509277H124.441Z" stroke="#706FAA" stroke-width="0.579185" stroke-miterlimit="10"/>
<path d="M158.72 91.669L158.557 91.3809L158.269 91.669H158.72Z" stroke="#706FAA" stroke-width="0.579185" stroke-miterlimit="10"/>
<path d="M146.586 70.8479L130.857 86.5768L133.166 90.7711L148.982 74.9514L146.586 70.8479Z" stroke="#706FAA" stroke-width="0.579185" stroke-miterlimit="10"/>
<path d="M148.983 74.9517L133.167 90.7714L133.659 91.6685H138.77L151.375 79.059L148.983 74.9517Z" stroke="#706FAA" stroke-width="0.579185" stroke-miterlimit="10"/>
<path d="M144.194 66.741L128.549 82.3865L130.858 86.5771L146.587 70.8483L144.194 66.741Z" stroke="#706FAA" stroke-width="0.579185" stroke-miterlimit="10"/>
<path d="M109.375 41.5444V36.5513L87.1726 58.7572V65.2569L110.885 41.5444H109.375Z" stroke="#706FAA" stroke-width="0.579185" stroke-miterlimit="10"/>
<path d="M141.801 62.6335L126.239 78.1958L128.548 82.3864L144.194 66.7408L141.801 62.6335Z" stroke="#706FAA" stroke-width="0.579185" stroke-miterlimit="10"/>
<path d="M153.768 83.1664L151.375 79.0591L138.769 91.6687H145.269L153.768 83.1664Z" stroke="#706FAA" stroke-width="0.579185" stroke-miterlimit="10"/>
<path d="M151.769 91.6685L156.16 87.2736L153.768 83.1663L145.269 91.6685H151.769Z" stroke="#706FAA" stroke-width="0.579185" stroke-miterlimit="10"/>
<path d="M158.269 91.6684L158.556 91.3807L156.16 87.2734L151.769 91.6684H158.269Z" stroke="#706FAA" stroke-width="0.579185" stroke-miterlimit="10"/>
<path d="M123.143 41.5443H117.389L87.1726 71.7604V78.2601L123.9 41.533C123.65 41.5405 123.396 41.5443 123.139 41.5443H123.143Z" stroke="#706FAA" stroke-width="0.579185" stroke-miterlimit="10"/>
<path d="M155.247 16.6809L114.674 57.2542H114.701L117.002 61.4296L156.974 21.4582C156.542 19.8002 155.97 18.2027 155.251 16.6809H155.247Z" stroke="#706FAA" stroke-width="0.579185" stroke-miterlimit="10"/>
<path d="M152.825 12.6082L135.347 30.0859C135.347 30.0859 135.347 30.1086 135.347 30.1162C135.347 37.0362 131.69 41.2759 123.9 41.5296L87.1726 78.2568V84.7565L109.379 62.5506V57.2509H114.678L155.252 16.6776C154.574 15.2467 153.76 13.8877 152.829 12.6006L152.825 12.6082Z" stroke="#706FAA" stroke-width="0.579185" stroke-miterlimit="10"/>
<path d="M110.885 41.5442L87.1726 65.2567V71.7603L117.389 41.5442H110.885Z" stroke="#706FAA" stroke-width="0.579185" stroke-miterlimit="10"/>
<path d="M157.942 29.2072C157.942 28.4879 157.912 27.7763 157.867 27.0684L119.311 65.6239L121.62 69.8145L157.583 33.852C157.821 32.3265 157.942 30.7744 157.942 29.2072V29.2072Z" stroke="#706FAA" stroke-width="0.579185" stroke-miterlimit="10"/>
<path d="M137.683 55.5661C141.01 54.5818 143.891 53.219 146.363 51.5686L153.612 44.3193C155.698 41.1432 157 37.581 157.579 33.8523L121.617 69.8148L123.926 74.0054L139.405 58.5264L137.683 55.5699V55.5661Z" stroke="#706FAA" stroke-width="0.579185" stroke-miterlimit="10"/>
<path d="M153.616 44.3188L146.367 51.5681C149.399 49.5429 151.803 47.0785 153.616 44.3188V44.3188Z" stroke="#706FAA" stroke-width="0.579185" stroke-miterlimit="10"/>
<path d="M156.97 21.4622L116.999 61.4335L119.308 65.6241L157.864 27.0685C157.739 25.1417 157.44 23.2641 156.97 21.4622V21.4622Z" stroke="#706FAA" stroke-width="0.579185" stroke-miterlimit="10"/>
<path d="M139.409 58.5261L123.93 74.0051L126.239 78.1957L141.802 62.6334L139.409 58.5261Z" stroke="#706FAA" stroke-width="0.579185" stroke-miterlimit="10"/>
<path d="M209.35 39.8559L225.658 23.5441L223.932 18.7705L207.708 34.9991L209.35 39.8559Z" stroke="#706FAA" stroke-width="0.579185" stroke-miterlimit="10"/>
<path d="M210.993 44.7093L227.388 28.318L225.658 23.5444L209.35 39.8563L210.993 44.7093Z" stroke="#706FAA" stroke-width="0.579185" stroke-miterlimit="10"/>
<path d="M207.708 34.9992L223.932 18.7706L222.206 13.9971L206.061 30.1423L207.708 34.9992Z" stroke="#706FAA" stroke-width="0.579185" stroke-miterlimit="10"/>
<path d="M206.061 30.1424L222.206 13.9972L220.48 9.22363L204.418 25.2856L206.061 30.1424Z" stroke="#706FAA" stroke-width="0.579185" stroke-miterlimit="10"/>
<path d="M212.64 49.566L229.115 33.0914L227.389 28.3179L210.994 44.7092L212.64 49.566Z" stroke="#706FAA" stroke-width="0.579185" stroke-miterlimit="10"/>
<path d="M200.912 35.2908L166.623 69.5839L162.936 79.7669L197.645 45.0612L200.912 35.2908Z" stroke="#706FAA" stroke-width="0.579185" stroke-miterlimit="10"/>
<path d="M204.339 25.051L204.418 25.2857L220.48 9.22374L218.75 4.4502L173.994 49.2103L170.307 59.3971L204.183 25.5204L204.339 25.051Z" stroke="#706FAA" stroke-width="0.579185" stroke-miterlimit="10"/>
<path d="M204.184 25.5205L170.307 59.3972L166.624 69.584L200.913 35.2909L204.184 25.5205Z" stroke="#706FAA" stroke-width="0.579185" stroke-miterlimit="10"/>
<path d="M214.283 54.423L230.841 37.8651L229.115 33.0916L212.64 49.5662L214.283 54.423Z" stroke="#706FAA" stroke-width="0.579185" stroke-miterlimit="10"/>
<path d="M196.692 0.509277L188.735 8.46645L185.052 18.6533L203.192 0.509277H196.692Z" stroke="#706FAA" stroke-width="0.579185" stroke-miterlimit="10"/>
<path d="M203.191 0.509277L185.051 18.6533L181.364 28.8364L209.691 0.509277H203.191Z" stroke="#706FAA" stroke-width="0.579185" stroke-miterlimit="10"/>
<path d="M181.875 91.6689L184.351 84.3552L177.041 91.6689H181.875Z" stroke="#706FAA" stroke-width="0.579185" stroke-miterlimit="10"/>
<path d="M191.616 0.509277L188.735 8.46645L196.692 0.509277H191.616Z" stroke="#706FAA" stroke-width="0.579185" stroke-miterlimit="10"/>
<path d="M210.994 44.709L209.351 39.856L207.708 34.9991L206.061 30.1423L204.418 25.2855L204.339 25.0508L204.183 25.5202L200.913 35.2906L197.646 45.0611L194.375 54.8315L193.171 58.424H197.282H203.782H210.282H215.638L214.283 54.4227L212.64 49.5659L210.994 44.709Z" stroke="#706FAA" stroke-width="0.579185" stroke-miterlimit="10"/>
<path d="M217.327 0.509277H216.195L177.677 39.0232L173.994 49.2101L218.75 4.45001L217.327 0.509277Z" stroke="#706FAA" stroke-width="0.579185" stroke-miterlimit="10"/>
<path d="M209.691 0.509277L181.364 28.8364L177.677 39.0232L216.195 0.509277H209.691Z" stroke="#706FAA" stroke-width="0.579185" stroke-miterlimit="10"/>
<path d="M197.282 58.4238L164.037 91.6683H170.537L203.782 58.4238H197.282Z" stroke="#706FAA" stroke-width="0.579185" stroke-miterlimit="10"/>
<path d="M250.31 91.6685L249.84 90.3701L248.546 91.6685H250.31Z" stroke="#706FAA" stroke-width="0.579185" stroke-miterlimit="10"/>
<path d="M242.932 71.2798L225.727 88.485L226.806 91.6686H229.043L244.658 76.0533L242.932 71.2798Z" stroke="#706FAA" stroke-width="0.579185" stroke-miterlimit="10"/>
<path d="M248.546 91.6687L249.84 90.3702L248.11 85.5967L242.042 91.6687H248.546Z" stroke="#706FAA" stroke-width="0.579185" stroke-miterlimit="10"/>
<path d="M241.206 66.5061L224.081 83.628L225.727 88.4849L242.932 71.2797L241.206 66.5061Z" stroke="#706FAA" stroke-width="0.579185" stroke-miterlimit="10"/>
<path d="M197.646 45.0615L162.936 79.7672L159.253 89.9541L194.375 54.832L197.646 45.0615Z" stroke="#706FAA" stroke-width="0.579185" stroke-miterlimit="10"/>
<path d="M239.476 61.7327L222.437 78.7713L224.08 83.6282L241.206 66.5062L239.476 61.7327Z" stroke="#706FAA" stroke-width="0.579185" stroke-miterlimit="10"/>
<path d="M242.042 91.6684L248.11 85.5964L246.384 80.8267L235.542 91.6684H242.042Z" stroke="#706FAA" stroke-width="0.579185" stroke-miterlimit="10"/>
<path d="M246.384 80.827L244.658 76.0535L229.043 91.6688H235.543L246.384 80.827Z" stroke="#706FAA" stroke-width="0.579185" stroke-miterlimit="10"/>
<path d="M203.782 58.4238L170.538 91.6683H177.041L184.351 84.3547L187.33 75.5647H193.141L210.282 58.4238H203.782Z" stroke="#706FAA" stroke-width="0.579185" stroke-miterlimit="10"/>
<path d="M193.171 58.424L194.375 54.8315L159.253 89.9537L158.632 91.6685H164.038L197.283 58.424H193.171Z" stroke="#706FAA" stroke-width="0.579185" stroke-miterlimit="10"/>
<path d="M237.75 56.959L219.144 75.5648H221.351L222.437 78.7712L239.476 61.7325L237.75 56.959Z" stroke="#706FAA" stroke-width="0.579185" stroke-miterlimit="10"/>
<path d="M230.841 37.865L214.283 54.4229L215.638 58.4242H210.282L193.141 75.5651H199.641L232.567 42.6385L230.841 37.865Z" stroke="#706FAA" stroke-width="0.579185" stroke-miterlimit="10"/>
<path d="M232.567 42.6384L199.641 75.5649H206.144L234.297 47.412L232.567 42.6384Z" stroke="#706FAA" stroke-width="0.579185" stroke-miterlimit="10"/>
<path d="M236.023 52.1853L212.644 75.5647H219.144L237.75 56.9589L236.023 52.1853Z" stroke="#706FAA" stroke-width="0.579185" stroke-miterlimit="10"/>
<path d="M234.297 47.4121L206.144 75.5651H212.644L236.023 52.1857L234.297 47.4121Z" stroke="#706FAA" stroke-width="0.579185" stroke-miterlimit="10"/>
<path d="M296.214 18.2975L313.453 1.05818V0.509277H307.502L289.71 18.2975H296.214Z" stroke="#706FAA" stroke-width="0.579185" stroke-miterlimit="10"/>
<path d="M276.313 18.6951L254.111 40.901V47.4007L276.313 25.1948V18.6951Z" stroke="#706FAA" stroke-width="0.579185" stroke-miterlimit="10"/>
<path d="M276.313 25.1946L254.111 47.4005V53.9002L276.313 31.6943V25.1946Z" stroke="#706FAA" stroke-width="0.579185" stroke-miterlimit="10"/>
<path d="M313.453 1.05835L296.214 18.2976H302.714" stroke="#706FAA" stroke-width="0.579185" stroke-miterlimit="10"/>
<path d="M289.71 18.2975L307.502 0.509277H301.002L283.21 18.2975H289.71Z" stroke="#706FAA" stroke-width="0.579185" stroke-miterlimit="10"/>
<path d="M276.313 18.2975H276.71L294.499 0.509277H287.999L254.111 34.4011V40.9008L276.313 18.6949V18.2975Z" stroke="#706FAA" stroke-width="0.579185" stroke-miterlimit="10"/>
<path d="M283.21 18.2975L301.002 0.509277H294.499L276.71 18.2975H283.21Z" stroke="#706FAA" stroke-width="0.579185" stroke-miterlimit="10"/>
<path d="M262 0.509277L254.111 8.39831V14.8981L268.5 0.509277H262Z" stroke="#706FAA" stroke-width="0.579185" stroke-miterlimit="10"/>
<path d="M255.496 0.509277L254.111 1.89857V8.39831L262 0.509277H255.496Z" stroke="#706FAA" stroke-width="0.579185" stroke-miterlimit="10"/>
<path d="M254.111 0.509277V1.89857L255.496 0.509277H254.111Z" stroke="#706FAA" stroke-width="0.579185" stroke-miterlimit="10"/>
<path d="M268.5 0.509277L254.111 14.8981V21.3978L274.999 0.509277H268.5Z" stroke="#706FAA" stroke-width="0.579185" stroke-miterlimit="10"/>
<path d="M281.499 0.509277L254.111 27.8976V34.4011L287.999 0.509277H281.499Z" stroke="#706FAA" stroke-width="0.579185" stroke-miterlimit="10"/>
<path d="M274.999 0.509277L254.111 21.3978V27.8976L281.499 0.509277H274.999Z" stroke="#706FAA" stroke-width="0.579185" stroke-miterlimit="10"/>
<path d="M285.724 54.7902L302.993 37.5168H296.493L279.224 54.7902H285.724Z" stroke="#706FAA" stroke-width="0.579185" stroke-miterlimit="10"/>
<path d="M274.848 91.6685L276.313 90.1997V83.7L268.348 91.6685H274.848Z" stroke="#706FAA" stroke-width="0.579185" stroke-miterlimit="10"/>
<path d="M276.313 91.6685V90.1997L274.848 91.6685H276.313Z" stroke="#706FAA" stroke-width="0.579185" stroke-miterlimit="10"/>
<path d="M276.313 57.6975L254.111 79.9034V86.4031L276.313 64.1973V57.6975Z" stroke="#706FAA" stroke-width="0.579185" stroke-miterlimit="10"/>
<path d="M276.313 64.1968L254.111 86.4027V91.6683H255.345L276.313 70.6965V64.1968Z" stroke="#706FAA" stroke-width="0.579185" stroke-miterlimit="10"/>
<path d="M276.314 77.2001V70.6965L255.346 91.6683H261.849L276.314 77.2001Z" stroke="#706FAA" stroke-width="0.579185" stroke-miterlimit="10"/>
<path d="M268.348 91.6687L276.313 83.7002V77.2004L261.848 91.6687H268.348Z" stroke="#706FAA" stroke-width="0.579185" stroke-miterlimit="10"/>
<path d="M292.223 54.7902L304.102 42.9112V37.5168H302.993L285.723 54.7902H292.223Z" stroke="#706FAA" stroke-width="0.579185" stroke-miterlimit="10"/>
<path d="M276.313 54.7902H279.224L296.494 37.5168H289.994L254.111 73.4036V79.9034L276.313 57.6975V54.7902Z" stroke="#706FAA" stroke-width="0.579185" stroke-miterlimit="10"/>
<path d="M304.103 54.7899V49.4106L298.727 54.7899H304.103Z" stroke="#706FAA" stroke-width="0.579185" stroke-miterlimit="10"/>
<path d="M276.994 37.5168L254.111 60.4004V66.9001L283.494 37.5168H276.994Z" stroke="#706FAA" stroke-width="0.579185" stroke-miterlimit="10"/>
<path d="M283.494 37.5168L254.111 66.9001V73.4036L289.994 37.5168H283.494Z" stroke="#706FAA" stroke-width="0.579185" stroke-miterlimit="10"/>
<path d="M276.313 37.517V31.6948L254.111 53.9007V60.4005L276.994 37.517H276.313Z" stroke="#706FAA" stroke-width="0.579185" stroke-miterlimit="10"/>
<path d="M298.727 54.7901L304.103 49.4109V42.9111L292.224 54.7901H298.727Z" stroke="#706FAA" stroke-width="0.579185" stroke-miterlimit="10"/>
<path d="M346.288 0.887695L328.5 18.6759H335L352.788 0.887695H346.288Z" stroke="#706FAA" stroke-width="0.579185" stroke-miterlimit="10"/>
<path d="M365.792 0.887695L337.643 29.0331V35.5328L372.292 0.887695H365.792Z" stroke="#706FAA" stroke-width="0.579185" stroke-miterlimit="10"/>
<path d="M352.788 0.887695L335 18.6759H337.642V22.5333L359.288 0.887695H352.788Z" stroke="#706FAA" stroke-width="0.579185" stroke-miterlimit="10"/>
<path d="M359.288 0.887695L337.643 22.5333V29.0331L365.792 0.887695H359.288Z" stroke="#706FAA" stroke-width="0.579185" stroke-miterlimit="10"/>
<path d="M384 18.676V15.1782L380.502 18.676H384Z" stroke="#706FAA" stroke-width="0.579185" stroke-miterlimit="10"/>
<path d="M374.002 18.676L384 8.67846V2.17871L367.502 18.676H374.002Z" stroke="#706FAA" stroke-width="0.579185" stroke-miterlimit="10"/>
<path d="M380.502 18.6763L384 15.1785V8.67871L374.002 18.6763H380.502Z" stroke="#706FAA" stroke-width="0.579185" stroke-miterlimit="10"/>
<path d="M315.497 18.6759L333.289 0.887695H326.79L313.491 14.1863" stroke="#706FAA" stroke-width="0.579185" stroke-miterlimit="10"/>
<path d="M313.491 7.68272L320.286 0.887695H313.786" stroke="#706FAA" stroke-width="0.579185" stroke-miterlimit="10"/>
<path d="M313.786 0.887695H313.491" stroke="#706FAA" stroke-width="0.579185" stroke-miterlimit="10"/>
<path d="M302.713 18.2973H309.213L313.491 14.1863L326.789 0.887695H320.286L313.491 7.68272L302.713 18.2973Z" stroke="#706FAA" stroke-width="0.579185" stroke-miterlimit="10"/>
<path d="M367.503 18.6759L384 2.17856V0.887695H378.791L360.999 18.6759H367.503Z" stroke="#706FAA" stroke-width="0.579185" stroke-miterlimit="10"/>
<path d="M333.289 0.887695L315.497 18.6759H321.997L339.789 0.887695H333.289Z" stroke="#706FAA" stroke-width="0.579185" stroke-miterlimit="10"/>
<path d="M339.789 0.887695L321.997 18.6759H328.501L346.289 0.887695H339.789Z" stroke="#706FAA" stroke-width="0.579185" stroke-miterlimit="10"/>
<path d="M359.848 58.833L337.643 81.0389V87.5386L359.848 65.3328V58.833Z" stroke="#706FAA" stroke-width="0.579185" stroke-miterlimit="10"/>
<path d="M359.137 92.0469L359.848 91.3352V84.8354L352.637 92.0469H359.137Z" stroke="#706FAA" stroke-width="0.579185" stroke-miterlimit="10"/>
<path d="M359.849 92.0482V91.3354L359.136 92.0482H359.849Z" stroke="#706FAA" stroke-width="0.579185" stroke-miterlimit="10"/>
<path d="M352.636 92.0471L359.848 84.8357V78.3359L346.136 92.0471H352.636Z" stroke="#706FAA" stroke-width="0.579185" stroke-miterlimit="10"/>
<path d="M359.848 78.3361V71.8325L339.637 92.0472H346.137L359.848 78.3361Z" stroke="#706FAA" stroke-width="0.579185" stroke-miterlimit="10"/>
<path d="M359.848 18.6759H360.999L378.791 0.887695H372.292L337.643 35.5328V42.0364L359.848 19.8305V18.6759Z" stroke="#706FAA" stroke-width="0.579185" stroke-miterlimit="10"/>
<path d="M359.848 65.3325L337.643 87.5384V92.047H339.638L359.848 71.8323V65.3325Z" stroke="#706FAA" stroke-width="0.579185" stroke-miterlimit="10"/>
<path d="M359.848 26.3303L337.643 48.5362V55.036L359.848 32.8301V26.3303Z" stroke="#706FAA" stroke-width="0.579185" stroke-miterlimit="10"/>
<path d="M359.848 19.8306L337.643 42.0365V48.5362L359.848 26.3303V19.8306Z" stroke="#706FAA" stroke-width="0.579185" stroke-miterlimit="10"/>
<path d="M359.848 32.8303L337.643 55.0362V61.536L359.848 39.3301V32.8303Z" stroke="#706FAA" stroke-width="0.579185" stroke-miterlimit="10"/>
<path d="M359.848 52.3333L337.643 74.5391V81.0389L359.848 58.833V52.3333Z" stroke="#706FAA" stroke-width="0.579185" stroke-miterlimit="10"/>
<path d="M359.848 39.3298L337.643 61.5357V68.0355L359.848 45.8334V39.3298Z" stroke="#706FAA" stroke-width="0.579185" stroke-miterlimit="10"/>
<path d="M359.848 45.8333L337.643 68.0354V74.5389L359.848 52.333V45.8333Z" stroke="#706FAA" stroke-width="0.579185" stroke-miterlimit="10"/>
<path d="M81.9377 46.087C81.9377 73.0967 63.2372 91.6647 34.153 91.6647H0V0.509277H34.153C63.241 0.509277 81.9377 18.9486 81.9377 46.087ZM32.7221 72.4494C49.473 72.4494 59.3419 62.8418 59.3419 46.0908C59.3419 29.3398 49.473 19.471 32.7221 19.471H22.2059V72.4494H32.7221Z" stroke="#2A2970" stroke-width="1.51421" stroke-miterlimit="10"/>
<path d="M124.441 0.509277C146.776 0.509277 157.943 13.3649 157.943 29.2074C157.943 40.6359 151.708 51.4132 137.687 55.566L158.723 91.6647H133.663L114.705 57.2543H109.382V91.6647H87.1765V0.509277H124.445H124.441ZM123.143 18.9486H109.379V41.5444H123.143C131.452 41.5444 135.347 37.2592 135.347 30.1159C135.347 23.3625 131.452 18.9486 123.143 18.9486V18.9486Z" stroke="#2A2970" stroke-width="1.51421" stroke-miterlimit="10"/>
<path d="M221.35 75.5649H187.33L181.875 91.6685H158.632L191.615 0.509277H217.326L250.31 91.6685H226.805L221.35 75.5649ZM204.338 25.0508L193.171 58.424H215.634L204.338 25.0508Z" stroke="#2A2970" stroke-width="1.51421" stroke-miterlimit="10"/>
<path d="M384 0.509277V18.2975H359.848V91.6685H337.642V18.2975H276.313V37.5166H304.102V54.7862H276.313V91.6647H254.107V0.509277H384V0.509277Z" stroke="#2A2970" stroke-width="1.51421" stroke-miterlimit="10"/>
</g>
<defs>
<clipPath id="clip0_2405_56852">
<rect width="385" height="133" fill="white"/>
</clipPath>
</defs>
</svg>
