<svg width="123" height="55" viewBox="0 0 123 55" fill="none" xmlns="http://www.w3.org/2000/svg">
<g clip-path="url(#clip0_1663_2845)">
<path d="M82.1113 7.12256C82.1113 18.6596 88.7588 29.7534 91.3752 33.6075C91.6801 34.0582 92.0907 34.4273 92.5712 34.6824C93.0516 34.9376 93.5873 35.071 94.1312 35.0711H110.98C111.524 35.071 112.059 34.9376 112.54 34.6824C113.02 34.4273 113.431 34.0582 113.736 33.6075C116.351 29.7534 123 18.6596 123 7.12256H82.1113Z" fill="#169FDB"/>
<path d="M83.6574 35.974C83.5598 35.8734 83.4652 35.7697 83.3721 35.666C83.4652 35.7697 83.5598 35.8734 83.6574 35.974Z" fill="#272A63"/>
<path d="M68.9111 11.8721H72.8642C73.4197 14.8784 74.2163 17.8351 75.2462 20.7134C74.2163 17.8351 73.4197 14.8784 72.8642 11.8721H68.9111Z" fill="#272A63"/>
<path d="M79.2578 45.1802C80.213 43.5604 81.1262 41.8955 81.9958 40.2051C81.1262 41.8955 80.213 43.5604 79.2578 45.1802Z" fill="#272A63"/>
<path d="M83.9322 36.2505C83.4596 37.2693 82.9705 38.2805 82.4648 39.2843C82.9655 38.2825 83.4546 37.2713 83.9322 36.2505Z" fill="#272A63"/>
<path d="M96.8259 15.4318C98.0274 10.4642 98.502 7.16748 98.502 7.16748H92.6625C92.2727 10.4603 91.6626 13.7233 90.8362 16.9344C90.7731 17.1824 90.71 17.4318 90.644 17.6857C89.8254 20.8292 88.7996 24.1064 87.5905 27.4151C87.164 28.5802 86.7134 29.7467 86.2388 30.9147L86.0391 30.7043L85.9084 30.5676C84.3576 28.0688 83.0235 25.4416 81.9208 22.715C81.8832 22.6248 81.8472 22.5332 81.8096 22.4415C81.6094 21.9476 81.4131 21.4368 81.2209 20.9088C79.5973 16.5154 78.5478 11.9306 78.0984 7.26816V7.22308H68.9111V11.8737H72.8642C73.4197 14.88 74.2163 17.8366 75.2462 20.715C77.0677 25.8645 79.6496 30.712 82.9061 35.0965C83.0472 35.2903 83.2064 35.4811 83.3686 35.6675C83.4618 35.7711 83.5564 35.8748 83.654 35.9755C83.7516 36.0762 83.8357 36.1618 83.9289 36.252C83.4563 37.2708 82.9671 38.282 82.4615 39.2858C82.3113 39.5938 82.1506 39.9018 81.9929 40.2068C81.1233 41.8973 80.2101 43.5622 79.2549 45.182H84.6212C85.8138 43.3924 86.9117 41.5337 87.9255 39.6389C89.0519 37.5352 90.0702 35.3805 90.9864 33.2408C92.1429 30.5436 93.1402 27.8629 93.9902 25.3055C94.1615 24.7916 94.3272 24.2837 94.4874 23.7818C94.6476 23.28 94.8023 22.7841 94.9515 22.2942C95.4021 20.8247 95.7956 19.4152 96.153 18.0869C96.3773 17.2455 96.5831 16.4391 96.7703 15.6677C96.7883 15.5896 96.8063 15.51 96.8259 15.4318Z" fill="#272A63"/>
<path d="M79.9596 55C81.9279 55 83.5236 53.4036 83.5236 51.4343C83.5236 49.4651 81.9279 47.8687 79.9596 47.8687C77.9912 47.8687 76.3955 49.4651 76.3955 51.4343C76.3955 53.4036 77.9912 55 79.9596 55Z" fill="#272A63"/>
<path d="M112.107 55C114.075 55 115.671 53.4036 115.671 51.4343C115.671 49.4651 114.075 47.8687 112.107 47.8687C110.139 47.8687 108.543 49.4651 108.543 51.4343C108.543 53.4036 110.139 55 112.107 55Z" fill="#272A63"/>
<path d="M13.6546 37.0634C7.70246 37.0634 4.20148 33.9935 4.20148 26.8126V11.7564H-0.00390625V7.00817H4.20148V0.290004L10.095 0V7.00817H17.3899V11.7564H10.095V26.7555C10.095 30.6352 11.7877 32.1408 14.6474 32.1408C15.7875 32.1415 16.9235 32.0053 18.0312 31.7351L18.3811 36.4848C16.8357 36.8733 15.248 37.0676 13.6546 37.0634Z" fill="#272A63"/>
<path d="M36.5579 6.31247C37.9495 6.30303 39.3383 6.439 40.7017 6.71818L39.8832 11.6452C38.9362 11.3645 37.9525 11.2278 36.9649 11.2395C34.0467 11.2395 31.8298 11.8766 30.1958 12.7421V36.3692H24.3037V9.0908C27.3376 7.41238 32.0641 6.31247 36.5579 6.31247Z" fill="#272A63"/>
<path d="M54.5045 37.0634C46.8597 37.0634 43.0088 33.3565 43.0088 28.2611C43.0088 22.2386 47.8525 19.2845 54.5045 19.2845C56.5824 19.2866 58.6547 19.5001 60.6894 19.9216V17.4889C60.6894 13.4319 58.4726 11.235 53.8617 11.235C51.1192 11.235 48.3181 11.7565 46.0427 12.6836L44.8757 7.99242C47.2682 7.00821 51.0035 6.3125 54.4459 6.3125C62.4407 6.3125 66.4613 10.4236 66.4613 17.7789V34.3993C64.0162 35.7892 59.9895 37.0634 54.5045 37.0634ZM60.6894 31.4466V23.86C58.8962 23.4032 57.0534 23.1695 55.2029 23.1643C51.5848 23.1643 48.8948 24.4385 48.8948 28.0297C48.8948 31.098 51.1117 32.6622 55.0212 32.6622C57.7141 32.6622 59.581 32.0807 60.6894 31.4466Z" fill="#272A63"/>
</g>
<defs>
<clipPath id="clip0_1663_2845">
<rect width="123" height="55" fill="white"/>
</clipPath>
</defs>
</svg>
