<svg width="108" height="19" viewBox="0 0 108 19" fill="none" xmlns="http://www.w3.org/2000/svg">
<path d="M10.0001 13.3125L5.37112 15.7462L6.25537 10.5915L2.50537 6.94122L7.68037 6.19122L9.99487 1.50146L12.3094 6.19122L17.4844 6.94122L13.7344 10.5915L14.6186 15.7462L10.0001 13.3125Z" stroke="#FBB832" stroke-width="1.66667" stroke-linecap="round" stroke-linejoin="round"/>
<path d="M32.0001 13.3125L27.3711 15.7462L28.2554 10.5915L24.5054 6.94122L29.6804 6.19122L31.9949 1.50146L34.3094 6.19122L39.4844 6.94122L35.7344 10.5915L36.6186 15.7462L32.0001 13.3125Z" stroke="#FBB832" stroke-width="1.66667" stroke-linecap="round" stroke-linejoin="round"/>
<path d="M54.0001 13.3125L49.3711 15.7462L50.2554 10.5915L46.5054 6.94122L51.6804 6.19122L53.9949 1.50146L56.3094 6.19122L61.4844 6.94122L57.7344 10.5915L58.6186 15.7462L54.0001 13.3125Z" stroke="#FBB832" stroke-width="1.66667" stroke-linecap="round" stroke-linejoin="round"/>
<path d="M76.0001 13.3125L71.3711 15.7462L72.2554 10.5915L68.5054 6.94122L73.6804 6.19122L75.9949 1.50146L78.3094 6.19122L83.4844 6.94122L79.7344 10.5915L80.6186 15.7462L76.0001 13.3125Z" stroke="#FBB832" stroke-width="1.66667" stroke-linecap="round" stroke-linejoin="round"/>
<path d="M98.0001 13.3125L93.3711 15.7462L94.2554 10.5915L90.5054 6.94122L95.6804 6.19122L97.9949 1.50146L100.309 6.19122L105.484 6.94122L101.734 10.5915L102.619 15.7462L98.0001 13.3125Z" stroke="#FBB832" stroke-width="1.66667" stroke-linecap="round" stroke-linejoin="round"/>
<path fill-rule="evenodd" clip-rule="evenodd" d="M23 0H0V19H23V0ZM10.7183 1.43792C10.5834 1.16977 10.3049 1 10 1C9.6951 1 9.41664 1.16977 9.28171 1.43792L7.24344 5.48851L2.68614 6.13628C2.38424 6.17919 2.13341 6.38656 2.03919 6.67111C1.94497 6.95567 2.02373 7.26801 2.24232 7.4767L5.54483 10.6295L4.76614 15.0816C4.71459 15.3763 4.83812 15.6742 5.08479 15.85C5.33146 16.0257 5.65849 16.0489 5.92837 15.9097L10.0046 13.8078L14.071 15.9094C14.3408 16.0489 14.668 16.0259 14.9149 15.8502C15.1618 15.6744 15.2854 15.3764 15.2339 15.0816L14.4552 10.6295L17.7577 7.4767C17.9763 7.26801 18.055 6.95567 17.9608 6.67111C17.8666 6.38656 17.6158 6.17919 17.3139 6.13628L12.7566 5.48851L10.7183 1.43792Z" fill="white"/>
<path fill-rule="evenodd" clip-rule="evenodd" d="M45 0H22V19H45V0ZM32.7183 1.43792C32.5834 1.16977 32.3049 1 32 1C31.6951 1 31.4166 1.16977 31.2817 1.43792L29.2434 5.48851L24.6861 6.13628C24.3842 6.17919 24.1334 6.38656 24.0392 6.67111C23.945 6.95567 24.0237 7.26801 24.2423 7.4767L27.5448 10.6295L26.7661 15.0816C26.7146 15.3763 26.8381 15.6742 27.0848 15.85C27.3315 16.0257 27.6585 16.0489 27.9284 15.9097L32.0046 13.8078L36.071 15.9094C36.3408 16.0489 36.668 16.0259 36.9149 15.8502C37.1618 15.6744 37.2854 15.3764 37.2339 15.0816L36.4552 10.6295L39.7577 7.4767C39.9763 7.26801 40.055 6.95567 39.9608 6.67111C39.8666 6.38656 39.6158 6.17919 39.3139 6.13628L34.7566 5.48851L32.7183 1.43792Z" fill="white"/>
<path fill-rule="evenodd" clip-rule="evenodd" d="M67 0H44V19H67V0ZM54.7183 1.43792C54.5834 1.16977 54.3049 1 54 1C53.6951 1 53.4166 1.16977 53.2817 1.43792L51.2434 5.48851L46.6861 6.13628C46.3842 6.17919 46.1334 6.38656 46.0392 6.67111C45.945 6.95567 46.0237 7.26801 46.2423 7.4767L49.5448 10.6295L48.7661 15.0816C48.7146 15.3763 48.8381 15.6742 49.0848 15.85C49.3315 16.0257 49.6585 16.0489 49.9284 15.9097L54.0046 13.8078L58.071 15.9094C58.3408 16.0489 58.668 16.0259 58.9149 15.8502C59.1618 15.6744 59.2854 15.3764 59.2339 15.0816L58.4552 10.6295L61.7577 7.4767C61.9763 7.26801 62.055 6.95567 61.9608 6.67111C61.8666 6.38656 61.6158 6.17919 61.3139 6.13628L56.7566 5.48851L54.7183 1.43792Z" fill="white"/>
<path fill-rule="evenodd" clip-rule="evenodd" d="M89 0H66V19H89V0ZM76.7183 1.43792C76.5834 1.16977 76.3049 1 76 1C75.6951 1 75.4166 1.16977 75.2817 1.43792L73.2434 5.48851L68.6861 6.13628C68.3842 6.17919 68.1334 6.38656 68.0392 6.67111C67.945 6.95567 68.0237 7.26801 68.2423 7.4767L71.5448 10.6295L70.7661 15.0816C70.7146 15.3763 70.8381 15.6742 71.0848 15.85C71.3315 16.0257 71.6585 16.0489 71.9284 15.9097L76.0046 13.8078L80.071 15.9094C80.3408 16.0489 80.668 16.0259 80.9149 15.8502C81.1618 15.6744 81.2854 15.3764 81.2339 15.0816L80.4552 10.6295L83.7577 7.4767C83.9763 7.26801 84.055 6.95567 83.9608 6.67111C83.8666 6.38656 83.6158 6.17919 83.3139 6.13628L78.7566 5.48851L76.7183 1.43792Z" fill="white"/>
<path fill-rule="evenodd" clip-rule="evenodd" d="M108 0H88V19H108V0ZM98.7183 1.43792C98.5834 1.16977 98.3049 1 98 1C97.6951 1 97.4166 1.16977 97.2817 1.43792L95.2434 5.48851L90.6861 6.13628C90.3842 6.17919 90.1334 6.38656 90.0392 6.67111C89.945 6.95567 90.0237 7.26801 90.2423 7.4767L93.5448 10.6295L92.7661 15.0816C92.7146 15.3763 92.8381 15.6742 93.0848 15.85C93.3315 16.0257 93.6585 16.0489 93.9284 15.9097L98.0046 13.8078L102.071 15.9094C102.341 16.0489 102.668 16.0259 102.915 15.8502C103.162 15.6744 103.285 15.3764 103.234 15.0816L102.455 10.6295L105.758 7.4767C105.976 7.26801 106.055 6.95567 105.961 6.67111C105.867 6.38656 105.616 6.17919 105.314 6.13628L100.757 5.48851L98.7183 1.43792Z" fill="white"/>
</svg>
