<svg version="1.1" xmlns="http://www.w3.org/2000/svg" xmlns:xlink="http://www.w3.org/1999/xlink" x="0px" y="0px" viewBox="0 0 512 512" style="enable-background:new 0 0 512 512;" xml:space="preserve">
<path style="fill:#D32F2F;" d="M171.744,111.744C195.232,84,225.568,67.296,258.72,67.296c74.528,0,134.944,84.48,134.944,188.704
	S333.248,444.736,258.72,444.736c-33.152,0-63.488-16.736-86.976-44.448c36.736,47.68,91.328,77.92,152.288,77.92
	c37.504,0,72.576-11.456,102.592-31.36C479.008,399.968,512,331.84,512,256s-32.992-143.968-85.376-190.816
	c-30.016-19.904-65.088-31.36-102.592-31.36C263.072,33.792,208.448,64.064,171.744,111.744"/>
<path style="fill:#F44336;" d="M256,0C114.624,0,0,114.624,0,256c0,137.28,108.096,249.344,243.808,255.712
	C247.84,511.904,251.904,512,256,512c65.536,0,125.312-24.64,170.592-65.152c-30.016,19.904-65.088,31.36-102.592,31.36
	c-60.96,0-115.552-30.24-152.288-77.92c-28.32-33.408-46.656-82.784-47.872-138.24c0-0.128,0-11.904,0-12.064
	c1.248-55.424,19.584-104.832,47.872-138.24c36.736-47.68,91.328-77.92,152.288-77.92c37.504,0,72.576,11.456,102.592,31.36
	C381.568,24.864,322.144,0.256,256.96,0C256.64,0,256.32,0,256,0L256,0z"/>
</svg>
