<svg xmlns="http://www.w3.org/2000/svg" viewBox="0 0 14 14">
    <g transform="translate(-97 -342)">
        <path fill="#fbb832" d="M107.65 355.814a1.085 1.085 0 01-.512-.129l-3.013-1.61a.265.265 0 00-.25 0l-3.013 1.611a1.079 1.079 0 01-1.146-.077 1.1 1.1 0 01-.444-1.086l.575-3.41a.292.292 0 00-.081-.256l-2.437-2.416a1.106 1.106 0 01-.273-1.137 1.091 1.091 0 01.88-.746l3.369-.5a.275.275 0 00.206-.154l1.507-3.099a1.089 1.089 0 011.965 0l1.506 3.1a.275.275 0 00.206.154l3.369.5a1.091 1.091 0 01.88.746 1.106 1.106 0 01-.272 1.137l-2.438 2.414a.292.292 0 00-.081.256l.575 3.41a1.1 1.1 0 01-.444 1.086 1.083 1.083 0 01-.634.206zm0 0"/>
    </g>
</svg>
